<?xml version="1.0" encoding="UTF-8"?>
<svg version="1.1" xmlns="http://www.w3.org/2000/svg" width="256" height="256">
<path d="M0 0 C2.5 0.125 2.5 0.125 3.5 1.125 C3.54080783 3.12458364 3.54254356 5.12545254 3.5 7.125 C2.84 7.125 2.18 7.125 1.5 7.125 C1.5309375 8.3315625 1.5309375 8.3315625 1.5625 9.5625 C1.5 12.125 1.5 12.125 0.5 13.125 C0.26298761 15.98377909 0.07780818 18.82383297 -0.0625 21.6875 C-0.12727539 22.89696289 -0.12727539 22.89696289 -0.19335938 24.13085938 C-0.29975262 26.12868805 -0.40040888 28.1268207 -0.5 30.125 C0.16 30.125 0.82 30.125 1.5 30.125 C1.5 32.105 1.5 34.085 1.5 36.125 C2.16 36.125 2.82 36.125 3.5 36.125 C4.7890625 37.5859375 4.7890625 37.5859375 6.125 39.5 C6.57101563 40.12648437 7.01703125 40.75296875 7.4765625 41.3984375 C8.5 43.125 8.5 43.125 8.5 45.125 C9.82 45.455 11.14 45.785 12.5 46.125 C12.5 46.785 12.5 47.445 12.5 48.125 C13.16 48.125 13.82 48.125 14.5 48.125 C15.58097027 49.24084028 16.65917647 50.35943966 17.7265625 51.48828125 C20.95830022 54.47087619 24.65700154 56.8596259 28.26953125 59.35546875 C29.00558594 59.93941406 29.74164063 60.52335937 30.5 61.125 C30.5 61.785 30.5 62.445 30.5 63.125 C31.015625 63.351875 31.53125 63.57875 32.0625 63.8125 C37.63764284 66.81449999 42.08755249 70.59643545 46.5 75.125 C47.8921875 76.2078125 47.8921875 76.2078125 49.3125 77.3125 C50.034375 77.910625 50.75625 78.50875 51.5 79.125 C51.5 79.785 51.5 80.445 51.5 81.125 C52.82 81.785 54.14 82.445 55.5 83.125 C55.5 83.785 55.5 84.445 55.5 85.125 C56.08265625 85.393125 56.6653125 85.66125 57.265625 85.9375 C59.52786601 87.13980991 61.30576318 88.46325913 63.25 90.125 C63.86359375 90.640625 64.4771875 91.15625 65.109375 91.6875 C66.5 93.125 66.5 93.125 66.5 95.125 C67.16 95.125 67.82 95.125 68.5 95.125 C68.83 96.445 69.16 97.765 69.5 99.125 C70.16 99.125 70.82 99.125 71.5 99.125 C71.5 99.785 71.5 100.445 71.5 101.125 C72.16 101.125 72.82 101.125 73.5 101.125 C73.5 101.785 73.5 102.445 73.5 103.125 C74.16 103.125 74.82 103.125 75.5 103.125 C75.5 104.115 75.5 105.105 75.5 106.125 C76.49 106.455 77.48 106.785 78.5 107.125 C80.6875 109 80.6875 109 82.5 111.125 C82.5 112.115 82.5 113.105 82.5 114.125 C83.098125 114.351875 83.69625 114.57875 84.3125 114.8125 C87.09348403 116.48109042 88.0641916 118.2533832 89.5 121.125 C89.5 121.785 89.5 122.445 89.5 123.125 C90.16 123.125 90.82 123.125 91.5 123.125 C91.5 124.115 91.5 125.105 91.5 126.125 C92.16 126.125 92.82 126.125 93.5 126.125 C94.34114171 127.55794498 95.17265687 128.99654405 96 130.4375 C96.4640625 131.23800781 96.928125 132.03851563 97.40625 132.86328125 C98.5 135.125 98.5 135.125 98.5 138.125 C99.16 138.125 99.82 138.125 100.5 138.125 C100.5 139.115 100.5 140.105 100.5 141.125 C101.16 141.125 101.82 141.125 102.5 141.125 C102.5 142.775 102.5 144.425 102.5 146.125 C103.16 146.125 103.82 146.125 104.5 146.125 C105.5261386 149.78489435 106.51972819 153.45256708 107.5 157.125 C107.71269531 157.888125 107.92539063 158.65125 108.14453125 159.4375 C109.72284007 165.61447842 109.94365243 171.76942105 109.5 178.125 C109.17 178.455 108.84 178.785 108.5 179.125 C107.96277038 181.40822589 107.46994248 183.70198125 107 186 C105.59625668 192.83622995 105.59625668 192.83622995 104.5 196.125 C103.84 196.125 103.18 196.125 102.5 196.125 C102.5 197.445 102.5 198.765 102.5 200.125 C101.84 200.125 101.18 200.125 100.5 200.125 C100.5 200.785 100.5 201.445 100.5 202.125 C99.84 202.125 99.18 202.125 98.5 202.125 C98.5 203.115 98.5 204.105 98.5 205.125 C97.84 205.125 97.18 205.125 96.5 205.125 C96.231875 205.929375 95.96375 206.73375 95.6875 207.5625 C95.295625 208.408125 94.90375 209.25375 94.5 210.125 C93.51 210.455 92.52 210.785 91.5 211.125 C91.5 211.785 91.5 212.445 91.5 213.125 C90.84 213.125 90.18 213.125 89.5 213.125 C89.17 214.115 88.84 215.105 88.5 216.125 C85.05555556 219.125 85.05555556 219.125 82.5 219.125 C82.5 219.785 82.5 220.445 82.5 221.125 C79.39143199 223.45451657 75.88273037 225.22648783 72.5 227.125 C71.88882324 227.48078125 71.27764648 227.8365625 70.64794922 228.203125 C61.07046271 233.76439979 51.9056232 237.55255396 41.1328125 240.15234375 C37.44104564 240.93273538 37.44104564 240.93273538 34.5 243.125 C31.95006454 243.70850926 29.45139722 244.20050954 26.875 244.625 C26.13169434 244.75245605 25.38838867 244.87991211 24.62255859 245.01123047 C18.42114411 246.04371455 12.19853767 246.82264837 5.94677734 247.47851562 C2.97022898 247.79597598 0.35177796 248.17440735 -2.5 249.125 C-23.91565708 250.88324724 -48.03431567 249.39265365 -67.64453125 240.00878906 C-69.91425217 238.92768515 -72.23484284 238.14805413 -74.625 237.375 C-84.72089013 233.78251026 -94.70627871 228.22676579 -103.5 222.125 C-103.5 221.465 -103.5 220.805 -103.5 220.125 C-104.16 220.125 -104.82 220.125 -105.5 220.125 C-105.5 219.465 -105.5 218.805 -105.5 218.125 C-106.675625 217.75375 -106.675625 217.75375 -107.875 217.375 C-110.93639814 215.91719136 -111.08706519 215.04506527 -112.5 212.125 C-114.55000871 211.31971111 -114.55000871 211.31971111 -116.5 211.125 C-116.5 210.135 -116.5 209.145 -116.5 208.125 C-117.16 208.125 -117.82 208.125 -118.5 208.125 C-121.5 204.66346154 -121.5 204.66346154 -121.5 202.125 C-122.16 202.125 -122.82 202.125 -123.5 202.125 C-123.5 201.135 -123.5 200.145 -123.5 199.125 C-124.16 199.125 -124.82 199.125 -125.5 199.125 C-130.84433962 186.97877358 -130.84433962 186.97877358 -130.5 181.125 C-131.16 181.125 -131.82 181.125 -132.5 181.125 C-132.5 173.535 -132.5 165.945 -132.5 158.125 C-131.84 158.125 -131.18 158.125 -130.5 158.125 C-130.5825 157.17625 -130.665 156.2275 -130.75 155.25 C-130.77667791 150.8837156 -129.20742046 147.40532973 -127.47265625 143.45703125 C-126.59346623 141.34909374 -125.98625376 139.35153037 -125.5 137.125 C-124.84 137.125 -124.18 137.125 -123.5 137.125 C-123.5 136.135 -123.5 135.145 -123.5 134.125 C-122.84 134.125 -122.18 134.125 -121.5 134.125 C-121.5 133.135 -121.5 132.145 -121.5 131.125 C-120.84 131.125 -120.18 131.125 -119.5 131.125 C-119.005 129.145 -119.005 129.145 -118.5 127.125 C-117.84 127.125 -117.18 127.125 -116.5 127.125 C-116.5 126.135 -116.5 125.145 -116.5 124.125 C-115.84 124.125 -115.18 124.125 -114.5 124.125 C-114.5 123.465 -114.5 122.805 -114.5 122.125 C-113.84 122.125 -113.18 122.125 -112.5 122.125 C-112.273125 121.58875 -112.04625 121.0525 -111.8125 120.5 C-109.00905122 115.42709268 -105.22583538 111.4458573 -100.5 108.125 C-99.84 108.125 -99.18 108.125 -98.5 108.125 C-98.5 107.465 -98.5 106.805 -98.5 106.125 C-97.84 106.125 -97.18 106.125 -96.5 106.125 C-96.5 105.465 -96.5 104.805 -96.5 104.125 C-94.85546875 102.43359375 -94.85546875 102.43359375 -92.6875 100.5625 C-91.62595703 99.63244141 -91.62595703 99.63244141 -90.54296875 98.68359375 C-88.5 97.125 -88.5 97.125 -85.5 96.125 C-85.5 95.465 -85.5 94.805 -85.5 94.125 C-84.84 94.125 -84.18 94.125 -83.5 94.125 C-83.190625 93.50625 -82.88125 92.8875 -82.5625 92.25 C-81.875 90.875 -81.1875 89.5 -80.5 88.125 C-79.84 88.125 -79.18 88.125 -78.5 88.125 C-78.5 86.475 -78.5 84.825 -78.5 83.125 C-77.84 83.125 -77.18 83.125 -76.5 83.125 C-76.83 79.165 -77.16 75.205 -77.5 71.125 C-77.83 71.125 -78.16 71.125 -78.5 71.125 C-78.5 69.145 -78.5 67.165 -78.5 65.125 C-72.39357521 64.34212503 -68.49540421 67.01674849 -63.5 70.125 C-63.5 70.785 -63.5 71.445 -63.5 72.125 C-62.84 72.125 -62.18 72.125 -61.5 72.125 C-61.5 72.785 -61.5 73.445 -61.5 74.125 C-60.84 74.125 -60.18 74.125 -59.5 74.125 C-53.75968109 83.35051253 -53.75968109 83.35051253 -54.5 89.125 C-53.84 89.125 -53.18 89.125 -52.5 89.125 C-52.5 92.425 -52.5 95.725 -52.5 99.125 C-48.80458414 100.07524979 -46.19541586 100.07524979 -42.5 99.125 C-42.5 98.465 -42.5 97.805 -42.5 97.125 C-41.18 96.795 -39.86 96.465 -38.5 96.125 C-38.5 92.165 -38.5 88.205 -38.5 84.125 C-39.16 84.125 -39.82 84.125 -40.5 84.125 C-42.6519437 80.89708445 -42.70086443 79.84099191 -42.5 76.125 C-43.16 76.125 -43.82 76.125 -44.5 76.125 C-48.24883992 69.13852561 -49.89196241 62.72859412 -49.875 54.875 C-49.87367065 53.76064575 -49.87367065 53.76064575 -49.87231445 52.6237793 C-49.73548906 46.21521103 -48.30119722 40.90811685 -45.5 35.125 C-45.19191406 34.465 -44.88382812 33.805 -44.56640625 33.125 C-43.91282348 31.77405379 -43.21362831 30.44521238 -42.5 29.125 C-41.84 29.125 -41.18 29.125 -40.5 29.125 C-40.5 28.465 -40.5 27.805 -40.5 27.125 C-39.84 27.125 -39.18 27.125 -38.5 27.125 C-38.5 26.135 -38.5 25.145 -38.5 24.125 C-37.125 22.4375 -37.125 22.4375 -35.5 21.125 C-34.84 21.125 -34.18 21.125 -33.5 21.125 C-33.5 20.465 -33.5 19.805 -33.5 19.125 C-32.18 18.795 -30.86 18.465 -29.5 18.125 C-29.5 17.465 -29.5 16.805 -29.5 16.125 C-25.88785045 12.86043465 -21.84901763 10.44022793 -17.625 8.0625 C-17.03847656 7.72412109 -16.45195313 7.38574219 -15.84765625 7.03710938 C-12.83095789 5.3232269 -9.81644828 3.78790473 -6.6171875 2.44140625 C-0.94833389 0.04741669 -0.94833389 0.04741669 0 0 Z " fill="#E14A24" transform="translate(138.5,-0.125)"/>
<path d="M0 0 C0.33 0 0.66 0 1 0 C1.02712153 1.916588 1.04645097 3.8332873 1.0625 5.75 C1.07410156 6.81734375 1.08570313 7.8846875 1.09765625 8.984375 C1.01405635 11.56593982 0.65724149 13.53534442 0 16 C-0.06456879 17.41534778 -0.08611039 18.83337689 -0.0625 20.25 C-0.041875 21.4875 -0.02125 22.725 0 24 C4.05300896 26.09887964 8.01873795 28.07159814 12.3125 29.625 C16 31 16 31 19 33 C19 33.66 19 34.32 19 35 C20.0828125 35.0928125 20.0828125 35.0928125 21.1875 35.1875 C24.85956016 36.24831738 26.39427842 38.26065167 29 41 C29.99 41.433125 29.99 41.433125 31 41.875 C33.78441503 43.44123345 35.04094395 45.69287063 36.75390625 48.34375 C38.07385351 50.28857865 38.07385351 50.28857865 41 52 C42.1328125 53.83984375 42.1328125 53.83984375 43.125 55.9375 C43.62386719 56.97197266 43.62386719 56.97197266 44.1328125 58.02734375 C47.05142836 64.66653747 47.1324421 72.66227591 44.8125 79.5 C42.7630597 82.3268142 40.55857376 84.62418151 38 87 C37.319375 87.804375 36.63875 88.60875 35.9375 89.4375 C30.68495538 94.01950701 24.05870489 98 17 98 C17 98.99 17 99.98 17 101 C16.34 101 15.68 101 15 101 C15.0825 101.845625 15.165 102.69125 15.25 103.5625 C14.93772195 107.85632319 13.33357614 110.51654576 11 114 C10.42121094 114.88042969 9.84242188 115.76085937 9.24609375 116.66796875 C5.69146281 121.92941621 5.69146281 121.92941621 4 124 C3.34 124 2.68 124 2 124 C-0.16717275 119.6656545 0.81503639 113.82329475 0.8125 109.0625 C0.80025391 107.85658203 0.78800781 106.65066406 0.77539062 105.40820312 C0.77345703 104.25384766 0.77152344 103.09949219 0.76953125 101.91015625 C0.76542236 100.84933838 0.76131348 99.78852051 0.75708008 98.69555664 C1 96 1 96 3 93 C3.66 93 4.32 93 5 93 C5.0825 92.401875 5.165 91.80375 5.25 91.1875 C6.21576779 88.37067727 7.48868567 87.52200868 10 86 C10.66 86 11.32 86 12 86 C12.495 84.515 12.495 84.515 13 83 C13.99 83 14.98 83 16 83 C16 82.01 16 81.02 16 80 C16.66 80 17.32 80 18 80 C18 72.74 18 65.48 18 58 C17.34 58 16.68 58 16 58 C16 57.01 16 56.02 16 55 C15.34 55 14.68 55 14 55 C14 54.34 14 53.68 14 53 C12.68 53 11.36 53 10 53 C10.32355469 53.52980469 10.64710938 54.05960938 10.98046875 54.60546875 C13.22686316 59.88148321 12.79767686 66.87619451 11.39453125 72.37109375 C10.31105191 75.0165433 9.61523068 76.69238466 7 78 C6.5875 78.7425 6.175 79.485 5.75 80.25 C1.90816506 86.2871692 -3.280428 88.90858102 -9.8125 91.1875 C-10.51665039 91.44305664 -11.22080078 91.69861328 -11.94628906 91.96191406 C-16.9091965 93.72442057 -21.83417725 94.96683545 -27 96 C-28.98 96.99 -28.98 96.99 -31 98 C-24.07 98.33 -17.14 98.66 -10 99 C-9.13302087 108.63234294 -8.87540676 118.14587078 -8.9375 127.8125 C-8.94253316 129.19856606 -8.9470928 130.58463393 -8.95117188 131.97070312 C-8.96282047 135.31384975 -8.97917571 138.65690011 -9 142 C-14.2235655 142.37695834 -19.44379968 142.64086547 -24.67675781 142.84912109 C-27.06263556 142.95744261 -29.44742012 143.09094801 -31.83105469 143.24072266 C-59.44614731 144.96921335 -59.44614731 144.96921335 -66.85791016 138.8034668 C-73 132.52531222 -73 132.52531222 -73 129 C-73.66 129 -74.32 129 -75 129 C-76.7265625 127.3203125 -76.7265625 127.3203125 -78.625 125.125 C-79.25664063 124.40570313 -79.88828125 123.68640625 -80.5390625 122.9453125 C-82 121 -82 121 -82 119 C-82.66 119 -83.32 119 -84 119 C-88 114.52941176 -88 114.52941176 -88 112 C-88.66 112 -89.32 112 -90 112 C-90.42317708 109.98177083 -90.84635417 107.96354167 -91.26953125 105.9453125 C-91.92308838 103.62953451 -91.92308838 103.62953451 -95 102 C-98.73694577 90.69689243 -100.02641304 78.08706745 -95 67 C-94.02530454 65.97532016 -93.02679488 64.97246711 -92 64 C-91.566875 63.05125 -91.13375 62.1025 -90.6875 61.125 C-88.59686997 57.2534629 -86.4709059 55.67548997 -83 53 C-82.57203125 52.53980469 -82.1440625 52.07960937 -81.703125 51.60546875 C-79.28579855 49.32675047 -76.57835288 47.73647712 -73.75 46 C-72.10257813 44.9790625 -72.10257813 44.9790625 -70.421875 43.9375 C-65.58645434 41.19963625 -61.68000284 39 -56 39 C-56 38.34 -56 37.68 -56 37 C-55.04480469 36.69707031 -54.08960938 36.39414063 -53.10546875 36.08203125 C-45.13809839 33.51735596 -37.54186254 30.65605522 -30 27 C-28.69471496 26.41768899 -27.38866998 25.83707961 -26.08203125 25.2578125 C-16.1343212 20.72873601 -7.57280015 15.5313319 -3.0625 5 C-2.711875 4.01 -2.36125 3.02 -2 2 C-1.34 1.34 -0.68 0.68 0 0 Z " fill="#FDFCFB" transform="translate(156,103)"/>
<path d="M0 0 C1.32 0 2.64 0 4 0 C4 0.66 4 1.32 4 2 C4.66 2 5.32 2 6 2 C6 2.99 6 3.98 6 5 C6.66 5 7.32 5 8 5 C9.28923485 8.86770455 9.14505706 12.53437316 9.125 16.5625 C9.12886719 17.34302734 9.13273437 18.12355469 9.13671875 18.92773438 C9.12667749 24.74664502 9.12667749 24.74664502 8 27 C7.34 27 6.68 27 6 27 C6 27.99 6 28.98 6 30 C4.515 30.495 4.515 30.495 3 31 C1.31288577 32.6459651 -0.3545622 34.31237149 -2 36 C-2.99 36.495 -2.99 36.495 -4 37 C-4.33 37.99 -4.66 38.98 -5 40 C-5.50958252 40.42450439 -6.01916504 40.84900879 -6.54418945 41.28637695 C-8.75337908 43.88679653 -8.33854543 46.06048649 -8.29296875 49.41796875 C-8.28330078 50.67158203 -8.27363281 51.92519531 -8.26367188 53.21679688 C-8.23853516 54.52712891 -8.21339844 55.83746094 -8.1875 57.1875 C-8.17244967 58.52277163 -8.15876187 59.85805937 -8.14648438 61.19335938 C-8.11107694 64.46264576 -8.0616889 67.73112093 -8 71 C-1.29030104 64.6890098 3.00086957 56.99608695 5 48 C5.66 48 6.32 48 7 48 C7 47.01 7 46.02 7 45 C9.97 44.34 12.94 43.68 16 43 C15.67 43.99 15.34 44.98 15 46 C14.01 46 13.02 46 12 46 C10.17104873 49.52726316 8.61921919 53.10707045 7.3828125 56.88671875 C5.6831695 61.89971076 3.61029475 65.11893314 0 69 C-0.8353125 69.928125 -0.8353125 69.928125 -1.6875 70.875 C-3 72 -3 72 -5 72 C-5.66 73.98 -6.32 75.96 -7 78 C-9.475 78.495 -9.475 78.495 -12 79 C-13.44962183 76.10075634 -13.22126481 73.47699645 -13.31640625 70.2421875 C-13.33718735 69.57913605 -13.35796844 68.91608459 -13.37937927 68.23294067 C-13.44479231 66.11373306 -13.50372105 63.994401 -13.5625 61.875 C-13.60569309 60.43878919 -13.64930764 59.00259098 -13.69335938 57.56640625 C-13.80046499 54.04440406 -13.90175575 50.52226175 -14 47 C-15.88083082 48.88083082 -15.13249882 51.58240308 -15.13793945 54.08276367 C-15.13366943 54.92170166 -15.12939941 55.76063965 -15.125 56.625 C-15.1252417 57.48005127 -15.1254834 58.33510254 -15.12573242 59.21606445 C-15.10026507 64.58268537 -14.80311819 69.84461395 -14.3125 75.1875 C-13.67226186 84.91702055 -13.67226186 84.91702055 -15.48486328 88.40429688 C-20.27143481 93.44539122 -30.83257256 93.19333257 -37.33203125 93.36328125 C-39.82557795 93.36197504 -42.3191641 93.34494841 -44.8125 93.3125 C-46.6987207 93.31733398 -46.6987207 93.31733398 -48.62304688 93.32226562 C-55.08719606 93.2848219 -60.82298685 92.94533287 -67 91 C-67 90.67 -67 90.34 -67 90 C-62.56270941 89.82744635 -58.12514614 89.66313255 -53.6875 89.5 C-51.85155273 89.42845703 -51.85155273 89.42845703 -49.97851562 89.35546875 C-39.63037545 88.98111743 -29.37614716 89 -19 89 C-19.33 74.81 -19.66 60.62 -20 46 C-26.93 46 -33.86 46 -41 46 C-41.99 45.34 -42.98 44.68 -44 44 C-42.97261719 43.75765625 -41.94523437 43.5153125 -40.88671875 43.265625 C-21.47936136 38.7017916 -21.47936136 38.7017916 -5 28 C-3.76487921 25.86690808 -3.76487921 25.86690808 -3 24 C-2.01 23.505 -2.01 23.505 -1 23 C0.80964163 18.69495781 1.24731069 15.01848484 1.1875 10.375 C1.18105469 9.26898438 1.17460937 8.16296875 1.16796875 7.0234375 C1.02802388 4.50442978 0.73166459 2.39985987 0 0 Z " fill="#D35433" transform="translate(166,156)"/>
<path d="M0 0 C0 3.84759538 -0.99356258 5.72281888 -3 9 C-8.15789474 13 -8.15789474 13 -11 13 C-11 13.66 -11 14.32 -11 15 C-11.66 15 -12.32 15 -13 15 C-12.938125 16.19625 -12.87625 17.3925 -12.8125 18.625 C-12.80518375 22.7440472 -13.76749153 25.47950587 -16 29 C-16.66 29.33 -17.32 29.66 -18 30 C-18.87115287 32.08081791 -18.87115287 32.08081791 -19.5625 34.5 C-20.90888383 38.90888383 -20.90888383 38.90888383 -22 40 C-24.32893658 49.70189125 -25.46267257 58.99256378 -25 69 C-24.34 69 -23.68 69 -23 69 C-22.34 73.95 -21.68 78.9 -21 84 C-19.02 84.66 -17.04 85.32 -15 86 C-13.6875 88.9375 -13.6875 88.9375 -13 92 C-12.67 92.99 -12.34 93.98 -12 95 C-11.34 95 -10.68 95 -10 95 C-10 95.66 -10 96.32 -10 97 C-9.34 97 -8.68 97 -8 97 C-7.67 98.98 -7.34 100.96 -7 103 C-5.68 103 -4.36 103 -3 103 C-3 103.66 -3 104.32 -3 105 C-2.34 105 -1.68 105 -1 105 C0.02408568 105.9753197 1.01834406 106.98198643 2 108 C2.886875 108.680625 3.77375 109.36125 4.6875 110.0625 C5.450625 110.701875 6.21375 111.34125 7 112 C7 112.66 7 113.32 7 114 C8.32 114 9.64 114 11 114 C11 114.66 11 115.32 11 116 C12.05767578 115.89558594 12.05767578 115.89558594 13.13671875 115.7890625 C16.80860053 116.05956948 18.74944153 117.36576486 21.8125 119.375 C22.78832031 120.00148438 23.76414063 120.62796875 24.76953125 121.2734375 C25.87361328 122.12808594 25.87361328 122.12808594 27 123 C27 123.66 27 124.32 27 125 C29.97 125.99 29.97 125.99 33 127 C29.63912375 128.16194739 28.02096518 127.89885568 24.83984375 126.375 C24.0506958 126.00125244 23.26154785 125.62750488 22.44848633 125.24243164 C21.61986084 124.8324292 20.79123535 124.42242676 19.9375 124 C19.09147217 123.58935303 18.24544434 123.17870605 17.3737793 122.75561523 C4.32295836 116.31817521 4.32295836 116.31817521 -1 112 C-1 111.34 -1 110.68 -1 110 C-1.66 110 -2.32 110 -3 110 C-3 109.34 -3 108.68 -3 108 C-4.175625 107.62875 -4.175625 107.62875 -5.375 107.25 C-8.43639814 105.79219136 -8.58706519 104.92006527 -10 102 C-12.05000871 101.19471111 -12.05000871 101.19471111 -14 101 C-14 100.01 -14 99.02 -14 98 C-14.66 98 -15.32 98 -16 98 C-19 94.53846154 -19 94.53846154 -19 92 C-19.66 92 -20.32 92 -21 92 C-21 91.01 -21 90.02 -21 89 C-21.66 89 -22.32 89 -23 89 C-28.34433962 76.85377358 -28.34433962 76.85377358 -28 71 C-28.66 71 -29.32 71 -30 71 C-30 63.41 -30 55.82 -30 48 C-29.34 48 -28.68 48 -28 48 C-28.0825 47.05125 -28.165 46.1025 -28.25 45.125 C-28.27667791 40.7587156 -26.70742046 37.28032973 -24.97265625 33.33203125 C-24.09346623 31.22409374 -23.48625376 29.22653037 -23 27 C-22.34 27 -21.68 27 -21 27 C-21 26.01 -21 25.02 -21 24 C-20.34 24 -19.68 24 -19 24 C-19 23.01 -19 22.02 -19 21 C-18.34 21 -17.68 21 -17 21 C-16.67 19.68 -16.34 18.36 -16 17 C-15.34 17 -14.68 17 -14 17 C-14 16.01 -14 15.02 -14 14 C-13.34 14 -12.68 14 -12 14 C-12 13.34 -12 12.68 -12 12 C-11.34 12 -10.68 12 -10 12 C-9.773125 11.46375 -9.54625 10.9275 -9.3125 10.375 C-6.94340796 6.08807155 -4.07057819 2.7137188 0 0 Z " fill="#AC442D" transform="translate(36,110)"/>
<path d="M0 0 C2.5 0.125 2.5 0.125 3.5 1.125 C3.54080783 3.12458364 3.54254356 5.12545254 3.5 7.125 C2.84 7.125 2.18 7.125 1.5 7.125 C1.520625 7.929375 1.54125 8.73375 1.5625 9.5625 C1.5 12.125 1.5 12.125 0.5 13.125 C0.26298761 15.98377909 0.07780818 18.82383297 -0.0625 21.6875 C-0.12727539 22.89696289 -0.12727539 22.89696289 -0.19335938 24.13085938 C-0.29975262 26.12868805 -0.40040888 28.1268207 -0.5 30.125 C0.16 30.125 0.82 30.125 1.5 30.125 C1.5 31.445 1.5 32.765 1.5 34.125 C-1.5 33.125 -1.5 33.125 -2.6875 31.375 C-3.60819096 28.82539426 -3.64948718 26.81576919 -3.5 24.125 C-4.16 24.125 -4.82 24.125 -5.5 24.125 C-4.84 18.185 -4.18 12.245 -3.5 6.125 C-9.04239568 9.53665159 -9.04239568 9.53665159 -11.5 12.125 C-14.1015625 12.7578125 -14.1015625 12.7578125 -17.125 13.25 C-18.12789062 13.41757813 -19.13078125 13.58515625 -20.1640625 13.7578125 C-20.93492188 13.87898437 -21.70578125 14.00015625 -22.5 14.125 C-22.5 14.785 -22.5 15.445 -22.5 16.125 C-24.1796875 17.4140625 -24.1796875 17.4140625 -26.375 18.75 C-27.09429687 19.19601563 -27.81359375 19.64203125 -28.5546875 20.1015625 C-30.5 21.125 -30.5 21.125 -32.5 21.125 C-32.5 21.785 -32.5 22.445 -32.5 23.125 C-33.16 23.125 -33.82 23.125 -34.5 23.125 C-34.67015625 23.65867187 -34.8403125 24.19234375 -35.015625 24.7421875 C-36.39837337 28.99340323 -37.88352633 33.16851631 -39.5625 37.3125 C-40.06716797 38.57513672 -40.06716797 38.57513672 -40.58203125 39.86328125 C-41.2809669 41.58533973 -42.00897029 43.29563167 -42.75 45 C-45.14888126 54.99533856 -43.81982268 66.03421858 -39 75.0625 C-35.44103101 81.73819922 -33.6550962 88.67854044 -35.5 96.125 C-36.16 96.125 -36.82 96.125 -37.5 96.125 C-37.5 96.785 -37.5 97.445 -37.5 98.125 C-39.975 98.62 -39.975 98.62 -42.5 99.125 C-42.5 98.465 -42.5 97.805 -42.5 97.125 C-40.52 96.63 -40.52 96.63 -38.5 96.125 C-38.5 92.165 -38.5 88.205 -38.5 84.125 C-39.16 84.125 -39.82 84.125 -40.5 84.125 C-42.6519437 80.89708445 -42.70086443 79.84099191 -42.5 76.125 C-43.16 76.125 -43.82 76.125 -44.5 76.125 C-48.24883992 69.13852561 -49.89196241 62.72859412 -49.875 54.875 C-49.87411377 54.13209717 -49.87322754 53.38919434 -49.87231445 52.6237793 C-49.73548906 46.21521103 -48.30119722 40.90811685 -45.5 35.125 C-45.19191406 34.465 -44.88382812 33.805 -44.56640625 33.125 C-43.91282348 31.77405379 -43.21362831 30.44521238 -42.5 29.125 C-41.84 29.125 -41.18 29.125 -40.5 29.125 C-40.5 28.465 -40.5 27.805 -40.5 27.125 C-39.84 27.125 -39.18 27.125 -38.5 27.125 C-38.5 26.135 -38.5 25.145 -38.5 24.125 C-37.125 22.4375 -37.125 22.4375 -35.5 21.125 C-34.84 21.125 -34.18 21.125 -33.5 21.125 C-33.5 20.465 -33.5 19.805 -33.5 19.125 C-32.18 18.795 -30.86 18.465 -29.5 18.125 C-29.5 17.465 -29.5 16.805 -29.5 16.125 C-25.88785045 12.86043465 -21.84901763 10.44022793 -17.625 8.0625 C-17.03847656 7.72412109 -16.45195313 7.38574219 -15.84765625 7.03710938 C-12.83095789 5.3232269 -9.81644828 3.78790473 -6.6171875 2.44140625 C-0.94833389 0.04741669 -0.94833389 0.04741669 0 0 Z " fill="#CB4B31" transform="translate(138.5,-0.125)"/>
<path d="M0 0 C0.66 0 1.32 0 2 0 C2 0.66 2 1.32 2 2 C2.66 2 3.32 2 4 2 C4.33 3.32 4.66 4.64 5 6 C5.66 6 6.32 6 7 6 C7 6.66 7 7.32 7 8 C7.66 8 8.32 8 9 8 C9 8.66 9 9.32 9 10 C9.66 10 10.32 10 11 10 C11 10.99 11 11.98 11 13 C11.99 13.33 12.98 13.66 14 14 C16.1875 15.875 16.1875 15.875 18 18 C18 18.99 18 19.98 18 21 C18.598125 21.226875 19.19625 21.45375 19.8125 21.6875 C22.59348403 23.35609042 23.5641916 25.1283832 25 28 C25 28.66 25 29.32 25 30 C25.66 30 26.32 30 27 30 C27 30.99 27 31.98 27 33 C27.66 33 28.32 33 29 33 C29.84114171 34.43294498 30.67265687 35.87154405 31.5 37.3125 C32.19609375 38.51326172 32.19609375 38.51326172 32.90625 39.73828125 C34 42 34 42 34 45 C34.66 45 35.32 45 36 45 C36 45.99 36 46.98 36 48 C36.66 48 37.32 48 38 48 C38 49.65 38 51.3 38 53 C38.66 53 39.32 53 40 53 C41.0261386 56.65989435 42.01972819 60.32756708 43 64 C43.21269531 64.763125 43.42539063 65.52625 43.64453125 66.3125 C45.22284007 72.48947842 45.44365243 78.64442105 45 85 C44.67 85.33 44.34 85.66 44 86 C43.46277038 88.28322589 42.96994248 90.57698125 42.5 92.875 C41.09625668 99.71122995 41.09625668 99.71122995 40 103 C39.34 103 38.68 103 38 103 C38.06566162 102.36473389 38.13132324 101.72946777 38.19897461 101.07495117 C38.94030799 93.49211137 39.30175204 85.92548559 39.5625 78.3125 C39.60568359 77.12205078 39.64886719 75.93160156 39.69335938 74.70507812 C39.79823679 71.80346966 39.90040196 68.90179365 40 66 C39.34 66 38.68 66 38 66 C37.49242138 64.58603098 36.99425075 63.16868271 36.5 61.75 C36.2215625 60.96109375 35.943125 60.1721875 35.65625 59.359375 C35 57 35 57 35 53 C34.34 53 33.68 53 33 53 C26 37.64974619 26 37.64974619 26 34 C24.68 33.67 23.36 33.34 22 33 C21.67 30.36 21.34 27.72 21 25 C20.278125 24.773125 19.55625 24.54625 18.8125 24.3125 C15.44461885 22.74082213 13.54967233 20.68042475 11 18 C10.236875 17.46375 9.47375 16.9275 8.6875 16.375 C8.130625 15.92125 7.57375 15.4675 7 15 C7 14.01 7 13.02 7 12 C6.01 12 5.02 12 4 12 C3.3291288 10.3767313 2.66342971 8.75132422 2 7.125 C1.62875 6.22007813 1.2575 5.31515625 0.875 4.3828125 C0 2 0 2 0 0 Z " fill="#AC412E" transform="translate(203,93)"/>
<path d="M0 0 C0.99 0.33 1.98 0.66 3 1 C3 1.66 3 2.32 3 3 C2.34 3 1.68 3 1 3 C1 3.66 1 4.32 1 5 C0.34 5 -0.32 5 -1 5 C-1 5.99 -1 6.98 -1 8 C-1.66 8 -2.32 8 -3 8 C-3.268125 8.804375 -3.53625 9.60875 -3.8125 10.4375 C-4.204375 11.283125 -4.59625 12.12875 -5 13 C-5.99 13.33 -6.98 13.66 -8 14 C-8 14.66 -8 15.32 -8 16 C-8.66 16 -9.32 16 -10 16 C-10.495 17.485 -10.495 17.485 -11 19 C-14.44444444 22 -14.44444444 22 -17 22 C-17 22.66 -17 23.32 -17 24 C-20.10856801 26.32951657 -23.61726963 28.10148783 -27 30 C-27.91676514 30.53367188 -27.91676514 30.53367188 -28.85205078 31.078125 C-38.42953729 36.63939979 -47.5943768 40.42755396 -58.3671875 43.02734375 C-62.05895436 43.80773538 -62.05895436 43.80773538 -65 46 C-67.75719122 46.6235142 -70.46681959 47.15875781 -73.25 47.625 C-74.35794922 47.82609375 -74.35794922 47.82609375 -75.48828125 48.03125 C-80.06043461 48.82149873 -84.36167135 49.13497782 -89 49 C-88.67 47.68 -88.34 46.36 -88 45 C-87.33468262 44.89453857 -86.66936523 44.78907715 -85.98388672 44.68041992 C-82.94585887 44.1929495 -79.91051496 43.69037145 -76.875 43.1875 C-75.82828125 43.02185547 -74.7815625 42.85621094 -73.703125 42.68554688 C-68.24821912 41.77064177 -63.88423572 40.69823362 -59 38 C-56.95315148 37.42070325 -54.88927521 36.89812821 -52.8125 36.4375 C-49.20597545 35.63453793 -47.10807575 35.0720505 -44 33 C-43.01 33 -42.02 33 -41 33 C-41 32.34 -41 31.68 -41 31 C-39.9275 30.855625 -38.855 30.71125 -37.75 30.5625 C-33.81334935 30.02103843 -33.81334935 30.02103843 -30 29 C-29.67 28.34 -29.34 27.68 -29 27 C-27.68 27 -26.36 27 -25 27 C-25 26.34 -25 25.68 -25 25 C-23.68 25 -22.36 25 -21 25 C-21 24.34 -21 23.68 -21 23 C-20.01 22.505 -20.01 22.505 -19 22 C-18.505 20.515 -18.505 20.515 -18 19 C-17.34 19 -16.68 19 -16 19 C-16 18.34 -16 17.68 -16 17 C-15.01 17 -14.02 17 -13 17 C-13 16.34 -13 15.68 -13 15 C-12.34 15 -11.68 15 -11 15 C-11 14.34 -11 13.68 -11 13 C-9.68 12.67 -8.36 12.34 -7 12 C-7 11.34 -7 10.68 -7 10 C-6.34 10 -5.68 10 -5 10 C-4.67 8.02 -4.34 6.04 -4 4 C-2.68 3.67 -1.36 3.34 0 3 C0 2.01 0 1.02 0 0 Z " fill="#CC4B2C" transform="translate(238,197)"/>
<path d="M0 0 C1.32 0 2.64 0 4 0 C4 0.66 4 1.32 4 2 C4.66 2 5.32 2 6 2 C6 2.99 6 3.98 6 5 C6.66 5 7.32 5 8 5 C9.28923485 8.86770455 9.14505706 12.53437316 9.125 16.5625 C9.13080078 17.73329102 9.13080078 17.73329102 9.13671875 18.92773438 C9.12667749 24.74664502 9.12667749 24.74664502 8 27 C7.34 27 6.68 27 6 27 C6 27.99 6 28.98 6 30 C5.01 30.33 4.02 30.66 3 31 C2.175 31.825 1.35 32.65 0.5 33.5 C-2 36 -2 36 -5 37 C-5 35.68 -5 34.36 -5 33 C-6.79398267 33.95399078 -8.58511655 34.91334026 -10.375 35.875 C-11.37273437 36.40867188 -12.37046875 36.94234375 -13.3984375 37.4921875 C-16.05348395 38.8820138 -16.05348395 38.8820138 -18 41 C-20.3828125 41.1953125 -20.3828125 41.1953125 -23.125 41.125 C-24.03507813 41.10695312 -24.94515625 41.08890625 -25.8828125 41.0703125 C-26.58148438 41.04710937 -27.28015625 41.02390625 -28 41 C-24.9278713 38.9519142 -22.22535992 37.96233486 -18.75 36.75 C-12.68791581 34.45897822 -6.94834875 31.93291217 -3.94921875 25.87890625 C-3 24 -3 24 -1 23 C0.80964163 18.69495781 1.24731069 15.01848484 1.1875 10.375 C1.18105469 9.26898438 1.17460937 8.16296875 1.16796875 7.0234375 C1.02802388 4.50442978 0.73166459 2.39985987 0 0 Z " fill="#D56248" transform="translate(166,156)"/>
<path d="M0 0 C0.66 0.33 1.32 0.66 2 1 C1.73445313 1.65226562 1.46890625 2.30453125 1.1953125 2.9765625 C0.46311213 4.78835758 -0.26045029 6.60366101 -0.9765625 8.421875 C-1.70317698 10.2522779 -2.46476833 12.06896717 -3.25 13.875 C-5.64888126 23.87033856 -4.31982268 34.90921858 0.5 43.9375 C4.05896899 50.61319922 5.8449038 57.55354044 4 65 C3.34 65 2.68 65 2 65 C2 65.66 2 66.32 2 67 C-0.475 67.495 -0.475 67.495 -3 68 C-3 67.34 -3 66.68 -3 66 C-1.02 65.505 -1.02 65.505 1 65 C1 61.04 1 57.08 1 53 C0.34 53 -0.32 53 -1 53 C-3.1519437 49.77208445 -3.20086443 48.71599191 -3 45 C-3.66 45 -4.32 45 -5 45 C-8.80079045 37.91670871 -10.3721184 31.51399266 -10.3125 23.5625 C-10.30903564 22.81548828 -10.30557129 22.06847656 -10.30200195 21.29882812 C-10.19624423 15.95601815 -9.6617947 11.73207947 -7 7 C-6.01 6.67 -5.02 6.34 -4 6 C-4 5.01 -4 4.02 -4 3 C-3.34 3 -2.68 3 -2 3 C-2 2.34 -2 1.68 -2 1 C-1.34 0.67 -0.68 0.34 0 0 Z " fill="#CE4F2D" transform="translate(99,31)"/>
<path d="M0 0 C6.10642479 -0.78287497 10.00459579 1.89174849 15 5 C15 5.66 15 6.32 15 7 C15.66 7 16.32 7 17 7 C17 7.66 17 8.32 17 9 C17.66 9 18.32 9 19 9 C24.74031891 18.22551253 24.74031891 18.22551253 24 24 C24.66 24 25.32 24 26 24 C26 26.64 26 29.28 26 32 C25.01 32 24.02 32 23 32 C22.938125 30.7625 22.87625 29.525 22.8125 28.25 C22.09541436 21.97550069 20.30534238 13.8398012 15.3359375 9.5703125 C13.56675262 8.62530958 13.56675262 8.62530958 11 8 C11 7.01 11 6.02 11 5 C8.34771188 3.92474806 5.71631546 2.90543849 3 2 C3 3.32 3 4.64 3 6 C3.66 6 4.32 6 5 6 C5.10826289 8.4178712 5.18739789 10.83087556 5.25 13.25 C5.30027344 14.27287109 5.30027344 14.27287109 5.3515625 15.31640625 C5.41984243 18.83282253 5.26749128 20.64850319 3.109375 23.484375 C1 25 1 25 -1 25 C-1.22042969 25.85271484 -1.22042969 25.85271484 -1.4453125 26.72265625 C-3.38956481 33.41580069 -6.07896004 38.40134999 -11.9921875 42.3203125 C-15.7050488 44.32385652 -18.69482077 45.5381474 -23 45 C-22.67 44.34 -22.34 43.68 -22 43 C-21.34 43 -20.68 43 -20 43 C-20 42.34 -20 41.68 -20 41 C-19.34 41 -18.68 41 -18 41 C-18 40.34 -18 39.68 -18 39 C-16.35546875 37.30859375 -16.35546875 37.30859375 -14.1875 35.4375 C-13.12595703 34.50744141 -13.12595703 34.50744141 -12.04296875 33.55859375 C-10 32 -10 32 -7 31 C-7 30.34 -7 29.68 -7 29 C-6.34 29 -5.68 29 -5 29 C-4.5359375 28.071875 -4.5359375 28.071875 -4.0625 27.125 C-3.375 25.75 -2.6875 24.375 -2 23 C-1.34 23 -0.68 23 0 23 C0 21.35 0 19.7 0 18 C0.66 18 1.32 18 2 18 C1.67 14.04 1.34 10.08 1 6 C0.67 6 0.34 6 0 6 C0 4.02 0 2.04 0 0 Z " fill="#AC442B" transform="translate(60,65)"/>
<path d="M0 0 C1.98 0.99 1.98 0.99 4 2 C4.10452713 9.30528468 4.00435713 16.41225009 3.0234375 23.66015625 C2.99606584 26.39275986 3.42186837 27.7755859 5 30 C8.35458155 30.76522801 8.35458155 30.76522801 12 31 C13.66934283 31.31966139 15.3373217 31.64731066 17 32 C17 32.66 17 33.32 17 34 C18.65 34.33 20.3 34.66 22 35 C22 35.66 22 36.32 22 37 C22.66 37 23.32 37 24 37 C24 37.66 24 38.32 24 39 C24.763125 39.103125 25.52625 39.20625 26.3125 39.3125 C29.18416484 40.04711194 30.23042094 40.6716065 32 43 C32 43.66 32 44.32 32 45 C32.721875 45.2475 33.44375 45.495 34.1875 45.75 C39.74760156 48.22115625 43.45673057 52.17721661 47 57 C48.36566822 62.17222944 48.2211799 67.37379349 48.25 72.6875 C48.270625 73.64978516 48.29125 74.61207031 48.3125 75.60351562 C48.32023437 76.98120117 48.32023437 76.98120117 48.328125 78.38671875 C48.34214355 79.64295044 48.34214355 79.64295044 48.35644531 80.92456055 C48.23881836 81.60945557 48.12119141 82.29435059 48 83 C47.01 83.66 46.02 84.32 45 85 C45.15984375 84.30648437 45.3196875 83.61296875 45.484375 82.8984375 C46.90506644 74.91242957 46.96463846 67.16684645 43 60 C42.71125 59.29875 42.4225 58.5975 42.125 57.875 C40.49764618 55.16274363 38.25672917 53.201687 36 51 C35.505 50.29875 35.01 49.5975 34.5 48.875 C32.62793173 46.53491467 30.59394621 45.48225498 28 44 C26.700625 42.948125 26.700625 42.948125 25.375 41.875 C23.06477194 39.83289928 23.06477194 39.83289928 20 39 C19.1028125 38.04287109 19.1028125 38.04287109 18.1875 37.06640625 C15.56389212 34.5880338 13.44819115 33.9331652 10 32.9375 C2.90583579 30.87132467 2.90583579 30.87132467 0 28 C-0.28212722 24.44519708 -0.41780295 21.53510932 0.515625 18.10546875 C1.1278754 15.4441545 1.09497201 12.97764902 1.0625 10.25 C1.05347656 9.26515625 1.04445312 8.2803125 1.03515625 7.265625 C1.02355469 6.51796875 1.01195312 5.7703125 1 5 C0.67 5 0.34 5 0 5 C0 3.35 0 1.7 0 0 Z " fill="#D16044" transform="translate(155,99)"/>
<path d="M0 0 C0 3.84759538 -0.99356258 5.72281888 -3 9 C-8.15789474 13 -8.15789474 13 -11 13 C-11 13.66 -11 14.32 -11 15 C-11.66 15 -12.32 15 -13 15 C-12.938125 16.19625 -12.87625 17.3925 -12.8125 18.625 C-12.80518375 22.7440472 -13.76749153 25.47950587 -16 29 C-16.66 29.33 -17.32 29.66 -18 30 C-18.87115287 32.08081791 -18.87115287 32.08081791 -19.5625 34.5 C-20.90888383 38.90888383 -20.90888383 38.90888383 -22 40 C-24.32893658 49.70189125 -25.46267257 58.99256378 -25 69 C-24.34 69 -23.68 69 -23 69 C-23 71.64 -23 74.28 -23 77 C-26.7793484 73.2206516 -27.1137281 68.27413519 -27.23046875 63.14453125 C-27.22831433 61.3671311 -27.21356255 59.58971037 -27.1875 57.8125 C-27.17887939 56.88284424 -27.17025879 55.95318848 -27.16137695 54.99536133 C-26.9125955 35.84586809 -26.9125955 35.84586809 -23 27 C-22.34 27 -21.68 27 -21 27 C-21 26.01 -21 25.02 -21 24 C-20.34 24 -19.68 24 -19 24 C-19 23.01 -19 22.02 -19 21 C-18.34 21 -17.68 21 -17 21 C-16.67 19.68 -16.34 18.36 -16 17 C-15.34 17 -14.68 17 -14 17 C-14 16.01 -14 15.02 -14 14 C-13.34 14 -12.68 14 -12 14 C-12 13.34 -12 12.68 -12 12 C-11.34 12 -10.68 12 -10 12 C-9.773125 11.46375 -9.54625 10.9275 -9.3125 10.375 C-6.94340796 6.08807155 -4.07057819 2.7137188 0 0 Z " fill="#C84D2E" transform="translate(36,110)"/>
<path d="M0 0 C0 0.66 0 1.32 0 2 C-0.48895752 2.40387939 -0.97791504 2.80775879 -1.48168945 3.22387695 C-3.74446943 5.87088199 -3.33955805 7.98589033 -3.29296875 11.41796875 C-3.28330078 12.67158203 -3.27363281 13.92519531 -3.26367188 15.21679688 C-3.23853516 16.52712891 -3.21339844 17.83746094 -3.1875 19.1875 C-3.17244967 20.52277163 -3.15876187 21.85805937 -3.14648438 23.19335938 C-3.11107694 26.46264576 -3.0616889 29.73112093 -3 33 C3.70969896 26.6890098 8.00086957 18.99608695 10 10 C10.66 10 11.32 10 12 10 C12 9.01 12 8.02 12 7 C14.97 6.34 17.94 5.68 21 5 C20.67 5.99 20.34 6.98 20 8 C19.01 8 18.02 8 17 8 C15.17104873 11.52726316 13.61921919 15.10707045 12.3828125 18.88671875 C10.6831695 23.89971076 8.61029475 27.11893314 5 31 C4.46375 31.598125 3.9275 32.19625 3.375 32.8125 C2 34 2 34 -1 35 C-2.00642948 36.32848691 -3.00692179 37.66150329 -4 39 C-4.66 39 -5.32 39 -6 39 C-6 26.79 -6 14.58 -6 2 C-2 0 -2 0 0 0 Z " fill="#D25332" transform="translate(161,194)"/>
<path d="M0 0 C0.66 0 1.32 0 2 0 C6 4.47058824 6 4.47058824 6 7 C6.66 7 7.32 7 8 7 C9.7265625 8.6796875 9.7265625 8.6796875 11.625 10.875 C12.57246094 11.95394531 12.57246094 11.95394531 13.5390625 13.0546875 C15 15 15 15 15 17 C15.66 17 16.32 17 17 17 C18.515625 18.57421875 18.515625 18.57421875 20.25 20.6875 C23.25954469 24.23964603 26.33524535 27.13970369 30 30 C25.9213664 31.64410037 22.24609419 30.32929375 18.1875 29.25 C17.50107422 29.07984375 16.81464844 28.9096875 16.10742188 28.734375 C11.51718816 27.55316065 7.26684458 26.07605754 3 24 C2.67 23.34 2.34 22.68 2 22 C0.35636866 21.27840576 -1.31050386 20.60648579 -3 20 C-1.1875 19.375 -1.1875 19.375 1 19 C1.99 19.66 2.98 20.32 4 21 C6.0492094 21.45139459 6.0492094 21.45139459 8.1875 21.625 C9.445625 21.74875 10.70375 21.8725 12 22 C9.3535726 15.34697022 6.58306492 10.21240303 1.1875 5.375 C0 4 0 4 0 0 Z " fill="#D14930" transform="translate(66,215)"/>
<path d="M0 0 C0 0.66 0 1.32 0 2 C-0.99 2 -1.98 2 -3 2 C-3.33 3.65 -3.66 5.3 -4 7 C-4.99 7 -5.98 7 -7 7 C-7.66 9.31 -8.32 11.62 -9 14 C-9.66 14 -10.32 14 -11 14 C-11.1546875 15.0828125 -11.1546875 15.0828125 -11.3125 16.1875 C-12.06351998 19.25985448 -13.35134849 21.32094129 -15 24 C-17.53050308 31.79530815 -16.19560488 40.31538293 -14 48 C-14 49.32 -14 50.64 -14 52 C-13.34 52 -12.68 52 -12 52 C-10.07794619 56.58335908 -8.54269924 61.27934033 -7 66 C-7.99 65.34 -8.98 64.68 -10 64 C-10 63.34 -10 62.68 -10 62 C-10.66 62 -11.32 62 -12 62 C-12.42317708 59.98177083 -12.84635417 57.96354167 -13.26953125 55.9453125 C-13.92308838 53.62953451 -13.92308838 53.62953451 -17 52 C-20.73694577 40.69689243 -22.02641304 28.08706745 -17 17 C-16.02530454 15.97532016 -15.02679488 14.97246711 -14 14 C-13.3503125 12.576875 -13.3503125 12.576875 -12.6875 11.125 C-10.59686997 7.2534629 -8.4709059 5.67548997 -5 3 C-4.4225 2.401875 -3.845 1.80375 -3.25 1.1875 C-2 0 -2 0 0 0 Z " fill="#F2C4B7" transform="translate(78,153)"/>
<path d="M0 0 C0.33 0 0.66 0 1 0 C1 10.23 1 20.46 1 31 C-12.51505501 34.37876375 -12.51505501 34.37876375 -18.234375 34.36328125 C-19.46800781 34.36263672 -20.70164062 34.36199219 -21.97265625 34.36132812 C-23.21917969 34.34521484 -24.46570313 34.32910156 -25.75 34.3125 C-27.01199219 34.31572266 -28.27398437 34.31894531 -29.57421875 34.32226562 C-36.05407232 34.28486878 -41.80838472 33.9523812 -48 32 C-48 31.67 -48 31.34 -48 31 C-31.99083851 30.37744909 -16.02202825 29.86973961 0 30 C0 20.1 0 10.2 0 0 Z " fill="#ACA29D" transform="translate(147,215)"/>
<path d="M0 0 C0.33 0 0.66 0 1 0 C1.02712153 1.916588 1.04645097 3.8332873 1.0625 5.75 C1.07410156 6.81734375 1.08570313 7.8846875 1.09765625 8.984375 C1.01406653 11.56562564 0.66960768 13.53790405 0 16 C-0.22127864 18.72738784 -0.13319739 21.24725385 0 24 C0.66 24.66 1.32 25.32 2 26 C0.68 25.67 -0.64 25.34 -2 25 C-2.8723412 22.00519083 -3.10829766 19.36424089 -3.0625 16.25 C-3.05347656 15.45078125 -3.04445312 14.6515625 -3.03515625 13.828125 C-3.02355469 13.22484375 -3.01195312 12.6215625 -3 12 C-3.99 13.485 -3.99 13.485 -5 15 C-5.66 15 -6.32 15 -7 15 C-7.33 16.32 -7.66 17.64 -8 19 C-8.66 19 -9.32 19 -10 19 C-10.309375 19.8971875 -10.309375 19.8971875 -10.625 20.8125 C-13.57424263 25.50447691 -19.83663657 26.7520594 -24.8515625 28.546875 C-27.27809612 29.058653 -28.64732198 28.66621241 -31 28 C-29.31583984 27.19949219 -29.31583984 27.19949219 -27.59765625 26.3828125 C-15.9962177 20.68181535 -6.51215164 14.74019287 -2 2 C-1.34 1.34 -0.68 0.68 0 0 Z " fill="#FAE3D6" transform="translate(156,103)"/>
<path d="M0 0 C3 1 3 1 4.421875 3.40625 C7.87376631 11.44712622 8.75878382 16.72364853 6 25 C5.01 25 4.02 25 3 25 C2.67 26.65 2.34 28.3 2 30 C0.68 30 -0.64 30 -2 30 C-1.69128878 28.20767663 -1.37790936 26.41615679 -1.0625 24.625 C-0.88847656 23.62726563 -0.71445313 22.62953125 -0.53515625 21.6015625 C0 19 0 19 1 17 C1.0972886 14.87681936 1.12977619 12.75040309 1.125 10.625 C1.12757813 9.48289063 1.13015625 8.34078125 1.1328125 7.1640625 C1.0238268 4.56763848 0.76461243 2.46375117 0 0 Z " fill="#D74D2E" transform="translate(166,156)"/>
<path d="M0 0 C0.66 0.33 1.32 0.66 2 1 C4.05735022 7.9721313 4.50628543 14.74716681 4 22 C3.67 22.33 3.34 22.66 3 23 C2.46277038 25.28322589 1.96994248 27.57698125 1.5 29.875 C0.09625668 36.71122995 0.09625668 36.71122995 -1 40 C-1.66 40 -2.32 40 -3 40 C-2.01 26.8 -1.02 13.6 0 0 Z " fill="#C04930" transform="translate(244,156)"/>
<path d="M0 0 C0.99 0.33 1.98 0.66 3 1 C3 1.66 3 2.32 3 3 C2.34 3 1.68 3 1 3 C1 3.66 1 4.32 1 5 C0.34 5 -0.32 5 -1 5 C-1 5.99 -1 6.98 -1 8 C-1.66 8 -2.32 8 -3 8 C-3.268125 8.804375 -3.53625 9.60875 -3.8125 10.4375 C-4.204375 11.283125 -4.59625 12.12875 -5 13 C-5.99 13.33 -6.98 13.66 -8 14 C-8 14.66 -8 15.32 -8 16 C-8.66 16 -9.32 16 -10 16 C-10.33 16.99 -10.66 17.98 -11 19 C-14.44444444 22 -14.44444444 22 -17 22 C-17 22.66 -17 23.32 -17 24 C-18.94140625 25.3671875 -18.94140625 25.3671875 -21.5625 26.875 C-22.47128906 27.4009375 -23.38007813 27.926875 -24.31640625 28.46875 C-25.20199219 28.9740625 -26.08757812 29.479375 -27 30 C-28.06541016 30.63421875 -28.06541016 30.63421875 -29.15234375 31.28125 C-33.74508929 34 -33.74508929 34 -36 34 C-36 33.34 -36 32.68 -36 32 C-35.030625 31.54625 -34.06125 31.0925 -33.0625 30.625 C-29.92920418 29.34213779 -29.92920418 29.34213779 -29 27 C-27.68 27 -26.36 27 -25 27 C-25 26.34 -25 25.68 -25 25 C-23.68 25 -22.36 25 -21 25 C-21 24.34 -21 23.68 -21 23 C-20.34 22.67 -19.68 22.34 -19 22 C-18.67 21.01 -18.34 20.02 -18 19 C-17.34 19 -16.68 19 -16 19 C-16 18.34 -16 17.68 -16 17 C-15.01 17 -14.02 17 -13 17 C-13 16.34 -13 15.68 -13 15 C-12.34 15 -11.68 15 -11 15 C-11 14.34 -11 13.68 -11 13 C-9.68 12.67 -8.36 12.34 -7 12 C-7 11.34 -7 10.68 -7 10 C-6.34 10 -5.68 10 -5 10 C-4.67 8.02 -4.34 6.04 -4 4 C-2.68 3.67 -1.36 3.34 0 3 C0 2.01 0 1.02 0 0 Z " fill="#7A2C1D" transform="translate(238,197)"/>
<path d="M0 0 C0 0.66 0 1.32 0 2 C-5.75 5 -5.75 5 -8 5 C-8 5.66 -8 6.32 -8 7 C-9.3125 8.625 -9.3125 8.625 -11 10 C-11.99 10 -12.98 10 -14 10 C-14 10.66 -14 11.32 -14 12 C-15.6796875 13.2890625 -15.6796875 13.2890625 -17.875 14.625 C-18.59429687 15.07101563 -19.31359375 15.51703125 -20.0546875 15.9765625 C-22 17 -22 17 -24 17 C-24 17.66 -24 18.32 -24 19 C-24.66 19 -25.32 19 -26 19 C-26.66 21.64 -27.32 24.28 -28 27 C-29.65 27.33 -31.3 27.66 -33 28 C-33 28.66 -33 29.32 -33 30 C-33.66 30 -34.32 30 -35 30 C-35 30.99 -35 31.98 -35 33 C-35.66 33 -36.32 33 -37 33 C-36.690625 32.236875 -36.38125 31.47375 -36.0625 30.6875 C-35.32106407 28.81210323 -34.63771783 26.91315348 -34 25 C-33.34 25 -32.68 25 -32 25 C-32 24.34 -32 23.68 -32 23 C-31.34 23 -30.68 23 -30 23 C-30 22.01 -30 21.02 -30 20 C-28.625 18.3125 -28.625 18.3125 -27 17 C-26.34 17 -25.68 17 -25 17 C-25 16.34 -25 15.68 -25 15 C-23.68 14.67 -22.36 14.34 -21 14 C-21 13.34 -21 12.68 -21 12 C-17.28933885 8.63566723 -13.1493053 6.19710017 -8.8125 3.75 C-8.18408203 3.38648438 -7.55566406 3.02296875 -6.90820312 2.6484375 C-2.25352444 0 -2.25352444 0 0 0 Z " fill="#7C2E1F" transform="translate(130,4)"/>
<path d="M0 0 C-1 1 -1 1 -4.5625 1.0625 C-5.696875 1.041875 -6.83125 1.02125 -8 1 C-8 1.66 -8 2.32 -8 3 C-1.73 3 4.54 3 11 3 C11 17.85 11 32.7 11 48 C10.67 48 10.34 48 10 48 C10 37.77 10 27.54 10 17 C9.34 17 8.68 17 8 17 C8 12.71 8 8.42 8 4 C6.51886719 4.02320313 5.03773438 4.04640625 3.51171875 4.0703125 C1.57031753 4.08907 -0.37108913 4.10727022 -2.3125 4.125 C-3.28896484 4.14175781 -4.26542969 4.15851563 -5.27148438 4.17578125 C-6.20927734 4.18222656 -7.14707031 4.18867188 -8.11328125 4.1953125 C-8.97735596 4.20578613 -9.84143066 4.21625977 -10.73168945 4.22705078 C-13 4 -13 4 -16 2 C-14.08654673 1.46748234 -12.1690705 0.94940517 -10.25 0.4375 C-9.18265625 0.14746094 -8.1153125 -0.14257812 -7.015625 -0.44140625 C-4.15664073 -0.97098494 -2.68402617 -0.98370862 0 0 Z " fill="#D37159" transform="translate(138,198)"/>
<path d="M0 0 C6.10642479 -0.78287497 10.00459579 1.89174849 15 5 C15 5.66 15 6.32 15 7 C15.66 7 16.32 7 17 7 C17 7.66 17 8.32 17 9 C17.66 9 18.32 9 19 9 C24.74031891 18.22551253 24.74031891 18.22551253 24 24 C24.66 24 25.32 24 26 24 C26 26.64 26 29.28 26 32 C25.01 32 24.02 32 23 32 C22.938125 30.7625 22.87625 29.525 22.8125 28.25 C22.09541436 21.97550069 20.30534238 13.8398012 15.3359375 9.5703125 C13.56675262 8.62530958 13.56675262 8.62530958 11 8 C11 7.01 11 6.02 11 5 C8.34771188 3.92474806 5.71631546 2.90543849 3 2 C3 2.99 3 3.98 3 5 C2.01 5.33 1.02 5.66 0 6 C0 4.02 0 2.04 0 0 Z " fill="#712B17" transform="translate(60,65)"/>
<path d="M0 0 C0 0.66 0 1.32 0 2 C-0.66 2 -1.32 2 -2 2 C-2.33 2.99 -2.66 3.98 -3 5 C-9.9124988 9.58040324 -18.68303406 13 -27 13 C-27 12.34 -27 11.68 -27 11 C-11.28458498 3 -11.28458498 3 -7 3 C-7 2.34 -7 1.68 -7 1 C-4.53721199 -0.231394 -2.7204945 -0.07159196 0 0 Z " fill="#C44C30" transform="translate(204,227)"/>
<path d="M0 0 C0 0.66 0 1.32 0 2 C-0.48895752 2.40387939 -0.97791504 2.80775879 -1.48168945 3.22387695 C-3.74446943 5.87088199 -3.33955805 7.98589033 -3.29296875 11.41796875 C-3.28330078 12.67158203 -3.27363281 13.92519531 -3.26367188 15.21679688 C-3.23853516 16.52712891 -3.21339844 17.83746094 -3.1875 19.1875 C-3.17244967 20.52277163 -3.15876187 21.85805937 -3.14648438 23.19335938 C-3.11107694 26.46264576 -3.0616889 29.73112093 -3 33 C-1.68 32.34 -0.36 31.68 1 31 C-0.36944102 33.94956528 -1.87830409 36.52468811 -4 39 C-4.66 39 -5.32 39 -6 39 C-6 26.79 -6 14.58 -6 2 C-2 0 -2 0 0 0 Z " fill="#E8AB9C" transform="translate(161,194)"/>
<path d="M0 0 C0.33 0 0.66 0 1 0 C1.33 2.31 1.66 4.62 2 7 C1.34 7 0.68 7 0 7 C0.34820233 17.69821629 1.09142564 27.64620701 4 38 C3.34 38 2.68 38 2 38 C-1.80150692 30.91537346 -3.36946021 24.51467964 -3.3125 16.5625 C-3.31121094 15.81621338 -3.30992188 15.06992676 -3.30859375 14.30102539 C-3.2150688 8.96016639 -2.45519965 4.80809932 0 0 Z " fill="#7D311F" transform="translate(92,38)"/>
<path d="M0 0 C2.64 0.33 5.28 0.66 8 1 C8 1.66 8 2.32 8 3 C8.70511719 2.93039063 9.41023438 2.86078125 10.13671875 2.7890625 C13.80860053 3.05956948 15.74944153 4.36576486 18.8125 6.375 C19.78832031 7.00148437 20.76414062 7.62796875 21.76953125 8.2734375 C22.50558594 8.84320313 23.24164063 9.41296875 24 10 C24 10.66 24 11.32 24 12 C25.98 12.66 27.96 13.32 30 14 C26.58038922 15.19693611 24.93389225 14.85656019 21.69921875 13.3046875 C20.88646484 12.91796875 20.07371094 12.53125 19.23632812 12.1328125 C18.39521484 11.71773437 17.55410156 11.30265625 16.6875 10.875 C15.85798828 10.483125 15.02847656 10.09125 14.17382812 9.6875 C9.05567358 7.21527381 4.48531329 4.49866543 0 1 C0 0.67 0 0.34 0 0 Z " fill="#9C3D2A" transform="translate(39,223)"/>
<path d="M0 0 C7.95393759 4.35215453 7.95393759 4.35215453 10 7 C10 7.66 10 8.32 10 9 C11.32 9.66 12.64 10.32 14 11 C14 11.66 14 12.32 14 13 C14.556875 13.20625 15.11375 13.4125 15.6875 13.625 C18.92501302 15.55000774 20.68231141 18.03850902 23 21 C19.17670414 20.4833384 17.62665115 19.74085338 15 17 C14.319375 16.87625 13.63875 16.7525 12.9375 16.625 C12.298125 16.41875 11.65875 16.2125 11 16 C10.31867549 14.33927151 9.65257873 12.672233 9 11 C6.98330173 9.86649466 6.98330173 9.86649466 5 9 C4.67 8.01 4.34 7.02 4 6 C1.99983534 4.79117904 1.99983534 4.79117904 0 4 C0 2.68 0 1.36 0 0 Z " fill="#A54128" transform="translate(180,72)"/>
<path d="M0 0 C2.00805761 1.3223794 4.00686795 2.65539248 6 4 C6.96873047 4.64775391 6.96873047 4.64775391 7.95703125 5.30859375 C9.67460476 6.48745785 11.34142401 7.73948225 13 9 C13 9.66 13 10.32 13 11 C13.515625 11.226875 14.03125 11.45375 14.5625 11.6875 C17.92403127 13.4975553 20.92911144 15.73996404 24 18 C23.67 18.66 23.34 19.32 23 20 C22.319375 19.54625 21.63875 19.0925 20.9375 18.625 C18.01665078 16.84463973 18.01665078 16.84463973 14.5 16.125 C10.45356207 14.82435924 8.80840559 13.12045065 6 10 C5.01 9.34 4.02 8.68 3 8 C3 7.34 3 6.68 3 6 C2.34 6 1.68 6 1 6 C0.67 4.02 0.34 2.04 0 0 Z " fill="#C24D32" transform="translate(156,52)"/>
<path d="M0 0 C0 0.66 0 1.32 0 2 C-0.99 2 -1.98 2 -3 2 C-3.33 3.65 -3.66 5.3 -4 7 C-4.99 7 -5.98 7 -7 7 C-7.66 9.31 -8.32 11.62 -9 14 C-9.66 14 -10.32 14 -11 14 C-11.103125 14.721875 -11.20625 15.44375 -11.3125 16.1875 C-12 19 -12 19 -13.46875 21.21875 C-15.33738025 24.6127927 -15.72157601 27.47758717 -16.1875 31.3125 C-16.42533203 33.19388672 -16.42533203 33.19388672 -16.66796875 35.11328125 C-16.77753906 36.06589844 -16.88710938 37.01851562 -17 38 C-17.33 38 -17.66 38 -18 38 C-18.0544452 35.79194476 -18.09299283 33.58349446 -18.125 31.375 C-18.14820313 30.14523438 -18.17140625 28.91546875 -18.1953125 27.6484375 C-18.0030428 24.05683959 -17.30258556 21.33338825 -16 18 C-15.34 18 -14.68 18 -14 18 C-13.938125 16.948125 -13.87625 15.89625 -13.8125 14.8125 C-12.84349638 10.26563685 -11.42675356 9.02829385 -8 6 C-7.278125 5.0925 -6.55625 4.185 -5.8125 3.25 C-3.86054227 0.82688005 -3.10885956 0 0 0 Z " fill="#FDECE2" transform="translate(78,153)"/>
<path d="M0 0 C0.66 0 1.32 0 2 0 C5.1465752 5.22737494 4.82585153 11.11405816 4 17 C2.4664924 20.16579943 0.67723021 22.70424042 -2 25 C-2.66 25 -3.32 25 -4 25 C-4 25.66 -4 26.32 -4 27 C-6.25 29.1875 -6.25 29.1875 -9 31 C-11.3125 30.75 -11.3125 30.75 -13 30 C-8.25 26 -8.25 26 -6 26 C-5.67 25.01 -5.34 24.02 -5 23 C-4.01 23 -3.02 23 -2 23 C-2 22.01 -2 21.02 -2 20 C-1.34 20 -0.68 20 0 20 C0 13.4 0 6.8 0 0 Z " fill="#FCE6DB" transform="translate(174,163)"/>
<path d="M0 0 C0.99 0.33 1.98 0.66 3 1 C-0.88601621 7.14142955 -5.0418391 11.48296093 -12 14 C-14.77734375 14.125 -14.77734375 14.125 -17 14 C-16.67 13.34 -16.34 12.68 -16 12 C-15.34 12 -14.68 12 -14 12 C-14 11.34 -14 10.68 -14 10 C-13.34 10 -12.68 10 -12 10 C-12 9.34 -12 8.68 -12 8 C-8.2384416 4.35242821 -4.96466917 3.16815745 0 2 C0 1.34 0 0.68 0 0 Z " fill="#D44C34" transform="translate(54,96)"/>
<path d="M0 0 C3.40844088 1.37909662 4.66737535 2.60563494 6.1875 5.9375 C6.67283203 6.97197266 6.67283203 6.97197266 7.16796875 8.02734375 C10.00379388 14.75077893 10.16249179 22.6868984 7.75 29.5625 C6.01293011 31.9819902 4.21663409 34.01267288 2 36 C2 34.68 2 33.36 2 32 C2.66 32 3.32 32 4 32 C4 30.35 4 28.7 4 27 C4.66 27 5.32 27 6 27 C6.66 22.71 7.32 18.42 8 14 C7.34 14 6.68 14 6 14 C4.99515796 12.04414675 3.99626195 10.08523763 3 8.125 C2.1646875 6.48917969 2.1646875 6.48917969 1.3125 4.8203125 C0 2 0 2 0 0 Z " fill="#F7D3C4" transform="translate(193,153)"/>
<path d="M0 0 C0 0.66 0 1.32 0 2 C-0.64324219 2.1959375 -1.28648438 2.391875 -1.94921875 2.59375 C-9.15034844 4.97700548 -15.03770502 8.27902776 -21.34765625 12.390625 C-24 14 -24 14 -26 14 C-26.268125 14.61875 -26.53625 15.2375 -26.8125 15.875 C-28 18 -28 18 -31 20 C-30.67 18.35 -30.34 16.7 -30 15 C-29.01 15 -28.02 15 -27 15 C-26.76925781 14.40316406 -26.53851563 13.80632812 -26.30078125 13.19140625 C-24.65759974 10.42316353 -22.97977011 9.507367 -20.1875 7.9375 C-19.33542969 7.45152344 -18.48335937 6.96554688 -17.60546875 6.46484375 C-16.31576172 5.73974609 -16.31576172 5.73974609 -15 5 C-14.11957031 4.46890625 -13.23914063 3.9378125 -12.33203125 3.390625 C-8.14663191 0.89480898 -4.90287701 -0.2801644 0 0 Z " fill="#D15E43" transform="translate(100,140)"/>
<path d="M0 0 C0.66 0 1.32 0 2 0 C2 0.66 2 1.32 2 2 C2.66 2 3.32 2 4 2 C4.33 3.32 4.66 4.64 5 6 C5.66 6 6.32 6 7 6 C7 6.66 7 7.32 7 8 C7.66 8 8.32 8 9 8 C9 8.66 9 9.32 9 10 C9.66 10 10.32 10 11 10 C11.99 13.3 12.98 16.6 14 20 C8.53125 16.38671875 8.53125 16.38671875 7 15 C7 14.01 7 13.02 7 12 C6.01 12 5.02 12 4 12 C3.3291288 10.3767313 2.66342971 8.75132422 2 7.125 C1.62875 6.22007813 1.2575 5.31515625 0.875 4.3828125 C0 2 0 2 0 0 Z " fill="#CB4D37" transform="translate(203,93)"/>
<path d="M0 0 C0.99 0 1.98 0 3 0 C0.02386205 8.72584949 -7.02861361 15.08655546 -15.0546875 19.2578125 C-17 20 -17 20 -20 20 C-19.505 18.515 -19.505 18.515 -19 17 C-17.35 17 -15.7 17 -14 17 C-14 16.01 -14 15.02 -14 14 C-13.01 14 -12.02 14 -11 14 C-11 13.34 -11 12.68 -11 12 C-9.68 12 -8.36 12 -7 12 C-7 11.34 -7 10.68 -7 10 C-6.34 10 -5.68 10 -5 10 C-4.731875 9.195625 -4.46375 8.39125 -4.1875 7.5625 C-3.795625 6.716875 -3.40375 5.87125 -3 5 C-2.01 4.67 -1.02 4.34 0 4 C0 2.68 0 1.36 0 0 Z " fill="#D25C41" transform="translate(150,108)"/>
<path d="M0 0 C0.99 0 1.98 0 3 0 C3.433125 0.9590625 3.433125 0.9590625 3.875 1.9375 C4.82823451 4.15206079 4.82823451 4.15206079 7 5 C7.85486376 9.66289322 8.30042194 13.37627754 7 18 C6.34 18 5.68 18 5 18 C5 18.66 5 19.32 5 20 C3.35 20.33 1.7 20.66 0 21 C0 20.34 0 19.68 0 19 C1.32 18.67 2.64 18.34 4 18 C4 14.04 4 10.08 4 6 C3.34 6 2.68 6 2 6 C0 3 0 3 0 0 Z " fill="#8F331F" transform="translate(96,78)"/>
<path d="M0 0 C0.99 0.495 0.99 0.495 2 1 C4.08354169 8.06089129 4.22311393 14.67442601 4 22 C3.34 22.33 2.68 22.66 2 23 C-0.48260659 15.39701733 -0.18508331 7.89688807 0 0 Z " fill="#5F2116" transform="translate(244,156)"/>
<path d="M0 0 C2.76223278 2.76223278 2.57856291 5.20706617 3 9 C3.66 9 4.32 9 5 9 C5.99 13.95 6.98 18.9 8 24 C7.34 24 6.68 24 6 24 C6 23.01 6 22.02 6 21 C5.34 21 4.68 21 4 21 C0.33486792 14.30715011 0.3023429 7.51687014 0 0 Z " fill="#953A23" transform="translate(9,178)"/>
<path d="M0 0 C0.99 0.66 1.98 1.32 3 2 C2.66896829 5.06204329 2.39949096 6.60050904 0.1875 8.8125 C-2 10 -2 10 -6 10 C-6.36627907 4.50581395 -6.36627907 4.50581395 -4.6875 2.1875 C-3 1 -3 1 0 0 Z " fill="#823933" transform="translate(6,213)"/>
<path d="M0 0 C0 4.43295559 -1.59094566 7.39433342 -4.51171875 10.72265625 C-7.77068136 13.8205016 -9.32918159 14.93611253 -13.9375 15.375 C-14.948125 15.25125 -15.95875 15.1275 -17 15 C-12.48306148 11.11041405 -12.48306148 11.11041405 -9.8125 10.5 C-9.214375 10.335 -8.61625 10.17 -8 10 C-7.30062468 8.68352881 -6.63270867 7.34977849 -6 6 C-5.01 5.67 -4.02 5.34 -3 5 C-1.8499169 3.03327085 -1.8499169 3.03327085 -1 1 C-0.67 0.67 -0.34 0.34 0 0 Z " fill="#D66C51" transform="translate(199,184)"/>
<path d="M0 0 C0.66 0.33 1.32 0.66 2 1 C-0.64738916 2.4606285 -1.89448334 3 -5 3 C-5 3.66 -5 4.32 -5 5 C-5.99 5 -6.98 5 -8 5 C-8 5.66 -8 6.32 -8 7 C-12.05773881 9.22209506 -15.41569099 10.43865604 -20 11 C-21.27875 11.185625 -22.5575 11.37125 -23.875 11.5625 C-24.90625 11.706875 -25.9375 11.85125 -27 12 C-26.67 11.34 -26.34 10.68 -26 10 C-24.68 10 -23.36 10 -22 10 C-22 9.34 -22 8.68 -22 8 C-20.99839844 7.67386719 -19.99679688 7.34773437 -18.96484375 7.01171875 C-17.6223418 6.57047685 -16.27989693 6.12906129 -14.9375 5.6875 C-14.28072266 5.47416016 -13.62394531 5.26082031 -12.94726562 5.04101562 C-9.58668661 3.931859 -6.35087942 2.73725406 -3.12890625 1.26953125 C-2.09636719 0.85058594 -1.06382813 0.43164062 0 0 Z " fill="#F5D0C4" transform="translate(122,132)"/>
<path d="M0 0 C0.66 0 1.32 0 2 0 C3.2890625 1.4609375 3.2890625 1.4609375 4.625 3.375 C5.29402344 4.31472656 5.29402344 4.31472656 5.9765625 5.2734375 C7 7 7 7 7 9 C8.32 9.33 9.64 9.66 11 10 C11 10.66 11 11.32 11 12 C11.66 12 12.32 12 13 12 C14.625 14 14.625 14 16 16 C15.01 16.33 14.02 16.66 13 17 C12.443125 16.3503125 12.443125 16.3503125 11.875 15.6875 C9.48718905 13.53847015 6.8980432 12.35242016 4 11 C4 9.68 4 8.36 4 7 C3.34 7 2.68 7 2 7 C1.34 4.69 0.68 2.38 0 0 Z " fill="#85311F" transform="translate(140,36)"/>
<path d="M0 0 C-1 1 -1 1 -4.5625 1.0625 C-5.696875 1.041875 -6.83125 1.02125 -8 1 C-8 1.66 -8 2.32 -8 3 C-2.39 3 3.22 3 9 3 C9 7.62 9 12.24 9 17 C8.67 17 8.34 17 8 17 C8 12.71 8 8.42 8 4 C6.51886719 4.02320313 5.03773438 4.04640625 3.51171875 4.0703125 C1.57031753 4.08907 -0.37108913 4.10727022 -2.3125 4.125 C-3.28896484 4.14175781 -4.26542969 4.15851563 -5.27148438 4.17578125 C-6.20927734 4.18222656 -7.14707031 4.18867188 -8.11328125 4.1953125 C-8.97735596 4.20578613 -9.84143066 4.21625977 -10.73168945 4.22705078 C-13 4 -13 4 -16 2 C-14.08654673 1.46748234 -12.1690705 0.94940517 -10.25 0.4375 C-9.18265625 0.14746094 -8.1153125 -0.14257812 -7.015625 -0.44140625 C-4.15664073 -0.97098494 -2.68402617 -0.98370862 0 0 Z " fill="#D27F6E" transform="translate(138,198)"/>
<path d="M0 0 C0.33 0 0.66 0 1 0 C1 7.59 1 15.18 1 23 C2.65 22.67 4.3 22.34 6 22 C6 20.68 6 19.36 6 18 C6.99 18 7.98 18 9 18 C7.63312778 21.98671063 5.84804907 24.88494633 3 28 C2.34 28 1.68 28 1 28 C-0.35700647 25.28598706 -0.1123861 23.15153684 -0.09765625 20.1171875 C-0.09443359 18.95058594 -0.09121094 17.78398437 -0.08789062 16.58203125 C-0.07951172 15.35871094 -0.07113281 14.13539063 -0.0625 12.875 C-0.05798828 11.64394531 -0.05347656 10.41289062 -0.04882812 9.14453125 C-0.0370133 6.09630608 -0.02054028 3.04817686 0 0 Z " fill="#FCE9E1" transform="translate(157,199)"/>
<path d="M0 0 C0.66 0 1.32 0 2 0 C2 0.66 2 1.32 2 2 C2.66 2 3.32 2 4 2 C4 2.99 4 3.98 4 5 C4.66 5 5.32 5 6 5 C7.28923485 8.86770455 7.14505706 12.53437316 7.125 16.5625 C7.12886719 17.34302734 7.13273438 18.12355469 7.13671875 18.92773438 C7.12667749 24.74664502 7.12667749 24.74664502 6 27 C5.34 27 4.68 27 4 27 C4 27.99 4 28.98 4 30 C3.34 30 2.68 30 2 30 C2.33 28.68 2.66 27.36 3 26 C3.66 26 4.32 26 5 26 C5.72194844 16.19754456 4.08554415 8.91524099 0 0 Z " fill="#E5A493" transform="translate(168,156)"/>
<path d="M0 0 C1.98 0.99 1.98 0.99 4 2 C4.05451714 4.04136395 4.09302485 6.08315856 4.125 8.125 C4.14820313 9.26195313 4.17140625 10.39890625 4.1953125 11.5703125 C3.99586852 15.07254886 3.18726732 17.72000079 2 21 C1.71045383 25.15772839 1.71045383 25.15772839 3 29 C2.01 28.67 1.02 28.34 0 28 C-0.12536729 20.47796278 -0.12536729 20.47796278 0.5 18.09375 C1.13487058 15.43522945 1.09499658 12.97971253 1.0625 10.25 C1.05347656 9.26515625 1.04445312 8.2803125 1.03515625 7.265625 C1.02355469 6.51796875 1.01195312 5.7703125 1 5 C0.67 5 0.34 5 0 5 C0 3.35 0 1.7 0 0 Z " fill="#DB7F67" transform="translate(155,99)"/>
<path d="M0 0 C2.92879371 0.62759865 5.36095629 1.58622659 8 3 C8 3.66 8 4.32 8 5 C6.68 5 5.36 5 4 5 C4 9.29 4 13.58 4 18 C3.34 18.33 2.68 18.66 2 19 C2 14.05 2 9.1 2 4 C1.34 4 0.68 4 0 4 C0 2.68 0 1.36 0 0 Z " fill="#C74F31" transform="translate(63,67)"/>
<path d="M0 0 C0.66 0 1.32 0 2 0 C2 5.28 2 10.56 2 16 C2.66 16 3.32 16 4 16 C4 17.32 4 18.64 4 20 C1 19 1 19 -0.17578125 17.28125 C-1.15980073 14.55770794 -1.23119072 12.39153126 -1.1875 9.5 C-1.18105469 8.5615625 -1.17460937 7.623125 -1.16796875 6.65625 C-1.01857816 4.29379415 -0.66710889 2.26283335 0 0 Z " fill="#7B2710" transform="translate(136,14)"/>
<path d="M0 0 C-1 2 -1 2 -3.75 3 C-8.46872549 5.90383107 -9.88661708 10.01578276 -12 15 C-12.66 15 -13.32 15 -14 15 C-14.33 16.32 -14.66 17.64 -15 19 C-15.33 18.34 -15.66 17.68 -16 17 C-15.01182658 15.28716607 -14.01945458 13.57639598 -12.9921875 11.88671875 C-11.64714545 9.32902068 -11.27851861 6.8548158 -11 4 C-10.34 4 -9.68 4 -9 4 C-9 3.01 -9 2.02 -9 1 C-2.25 -1.125 -2.25 -1.125 0 0 Z " fill="#D57C68" transform="translate(182,200)"/>
<path d="M0 0 C2.475 0.495 2.475 0.495 5 1 C5.33 2.65 5.66 4.3 6 6 C7.32 6.33 8.64 6.66 10 7 C10.33 8.65 10.66 10.3 11 12 C12.32 12.33 13.64 12.66 15 13 C14.67 13.99 14.34 14.98 14 16 C12.2925002 14.71937515 10.62626404 13.38232443 9 12 C9 11.34 9 10.68 9 10 C7.68 9.67 6.36 9.34 5 9 C5 8.01 5 7.02 5 6 C4.34 6 3.68 6 3 6 C0 2.53846154 0 2.53846154 0 0 Z " fill="#742D1D" transform="translate(17,202)"/>
<path d="M0 0 C0 3.84759538 -0.99356258 5.72281888 -3 9 C-8.15789474 13 -8.15789474 13 -11 13 C-11 13.66 -11 14.32 -11 15 C-11.66 15 -12.32 15 -13 15 C-13 15.99 -13 16.98 -13 18 C-13.66 18 -14.32 18 -15 18 C-15 18.66 -15 19.32 -15 20 C-15.66 19.67 -16.32 19.34 -17 19 C-16.67 18.34 -16.34 17.68 -16 17 C-15.34 17 -14.68 17 -14 17 C-14 16.01 -14 15.02 -14 14 C-13.34 14 -12.68 14 -12 14 C-12 13.34 -12 12.68 -12 12 C-11.34 12 -10.68 12 -10 12 C-9.773125 11.46375 -9.54625 10.9275 -9.3125 10.375 C-6.94340796 6.08807155 -4.07057819 2.7137188 0 0 Z " fill="#973927" transform="translate(36,110)"/>
<path d="M0 0 C1.97986082 0.11347619 3.95891598 0.2410935 5.9375 0.375 C7.03964844 0.44460937 8.14179687 0.51421875 9.27734375 0.5859375 C10.62505859 0.79089844 10.62505859 0.79089844 12 1 C12.33 1.66 12.66 2.32 13 3 C15.53574127 3.60374792 18.07455172 3.95781126 20.65234375 4.33984375 C23 5 23 5 25 8 C16.131491 6.56362799 8.06022192 5.17404349 0 1 C0 0.67 0 0.34 0 0 Z " fill="#782F23" transform="translate(69,238)"/>
<path d="M0 0 C-2.91123662 1.94082441 -4.12493979 2.36072936 -7.44921875 2.8515625 C-8.29677734 2.98046875 -9.14433594 3.109375 -10.01757812 3.2421875 C-11.33918945 3.43167969 -11.33918945 3.43167969 -12.6875 3.625 C-13.58017578 3.7590625 -14.47285156 3.893125 -15.39257812 4.03125 C-17.59414427 4.36089627 -19.79650647 4.68353914 -22 5 C-22 4.34 -22 3.68 -22 3 C-15.90022416 0.30202222 -6.36615804 -3.18307902 0 0 Z " fill="#87311E" transform="translate(176,241)"/>
<path d="M0 0 C0.99 0.33 1.98 0.66 3 1 C2.34 1 1.68 1 1 1 C1.32355469 1.52980469 1.64710938 2.05960938 1.98046875 2.60546875 C4.22216964 7.87045972 3.85618168 14.95139935 2.32421875 20.40625 C1.5 22.3125 1.5 22.3125 0 25 C-1.466976 22.06604799 -0.84636518 19.68617932 -0.5625 16.4375 C-0.11978321 10.92624351 0.09527363 5.52587065 0 0 Z " fill="#F0C3B7" transform="translate(165,155)"/>
<path d="M0 0 C1 1 1 1 1.0625 4.0625 C1.041875 5.031875 1.02125 6.00125 1 7 C0.34 7 -0.32 7 -1 7 C-1 8.65 -1 10.3 -1 12 C-1.99 12 -2.98 12 -4 12 C-4 10.02 -4 8.04 -4 6 C-3.34 6 -2.68 6 -2 6 C-1.67 5.01 -1.34 4.02 -1 3 C-5.455 3.495 -5.455 3.495 -10 4 C-6.62005298 0.90976272 -4.6589257 -0.64707301 0 0 Z " fill="#692A19" transform="translate(141,0)"/>
<path d="M0 0 C0.99 0.495 0.99 0.495 2 1 C2 1.99 2 2.98 2 4 C2.66 4 3.32 4 4 4 C4 4.99 4 5.98 4 7 C4.66 7 5.32 7 6 7 C6 8.65 6 10.3 6 12 C6.66 12 7.32 12 8 12 C8.33 14.31 8.66 16.62 9 19 C8.34 19 7.68 19 7 19 C7 17.68 7 16.36 7 15 C6.34 15 5.68 15 5 15 C5 13.68 5 12.36 5 11 C4.01 10.67 3.02 10.34 2 10 C1.34 6.7 0.68 3.4 0 0 Z " fill="#752A1D" transform="translate(235,134)"/>
<path d="M0 0 C0.66 0 1.32 0 2 0 C6 4.47058824 6 4.47058824 6 7 C6.66 7 7.32 7 8 7 C9.7265625 8.75 9.7265625 8.75 11.625 11 C12.25664063 11.7425 12.88828125 12.485 13.5390625 13.25 C14.02117187 13.8275 14.50328125 14.405 15 15 C14.67 15.66 14.34 16.32 14 17 C10.19266711 13.7915734 6.46200221 10.58564514 3 7 C2.4225 6.505 1.845 6.01 1.25 5.5 C0 4 0 4 0 0 Z " fill="#D6725C" transform="translate(66,215)"/>
<path d="M0 0 C-1.30324219 0.48919922 -1.30324219 0.48919922 -2.6328125 0.98828125 C-3.78523438 1.42527344 -4.93765625 1.86226562 -6.125 2.3125 C-7.26195313 2.74175781 -8.39890625 3.17101562 -9.5703125 3.61328125 C-12.99276469 4.93903284 -12.99276469 4.93903284 -16.125 6.59375 C-18.76849907 7.88676585 -21.00452454 8.62210332 -23.875 9.1875 C-24.65617187 9.34605469 -25.43734375 9.50460938 -26.2421875 9.66796875 C-26.82226562 9.77753906 -27.40234375 9.88710937 -28 10 C-28 9.34 -28 8.68 -28 8 C-24.12315913 6.80712589 -21.08378077 6 -17 6 C-17 5.34 -17 4.68 -17 4 C-14.92227529 3.13227971 -12.83756823 2.28126381 -10.75 1.4375 C-9.58984375 0.96183594 -8.4296875 0.48617187 -7.234375 -0.00390625 C-4.13733356 -0.95770524 -2.92678299 -1.20983356 0 0 Z " fill="#D05D47" transform="translate(129,130)"/>
<path d="M0 0 C2.4369285 3.65539275 2.45679512 5.9532333 2.75 10.3125 C2.84796875 11.60800781 2.9459375 12.90351563 3.046875 14.23828125 C3.00050612 17.95938386 2.38221195 20.57105112 1 24 C0.67 24 0.34 24 0 24 C0 16.08 0 8.16 0 0 Z " fill="#D55A37" transform="translate(149,220)"/>
<path d="M0 0 C0.66 0.33 1.32 0.66 2 1 C-0.3385196 4.50777939 -2.26413448 5.20989777 -6 7 C-6.66 7.66 -7.32 8.32 -8 9 C-10.3828125 9.1953125 -10.3828125 9.1953125 -13.125 9.125 C-14.49011719 9.09792969 -14.49011719 9.09792969 -15.8828125 9.0703125 C-16.58148438 9.04710937 -17.28015625 9.02390625 -18 9 C-13.92073315 6.28048877 -9.52294561 4.89690765 -4.93359375 3.21875 C-1.9390448 2.19351927 -1.9390448 2.19351927 0 0 Z " fill="#DA7561" transform="translate(156,188)"/>
<path d="M0 0 C3 1 3 1 4.2109375 3.16796875 C5.12951316 6.46483683 4.99783561 8.91969596 4.625 12.3125 C4.51414063 13.38113281 4.40328125 14.44976562 4.2890625 15.55078125 C4.19367188 16.35902344 4.09828125 17.16726562 4 18 C3.34 18 2.68 18 2 18 C1.67 18.99 1.34 19.98 1 21 C0.67 20.34 0.34 19.68 0 19 C0.33 18.34 0.66 17.68 1 17 C1.0972886 14.87681936 1.12977619 12.75040309 1.125 10.625 C1.12757813 9.48289063 1.13015625 8.34078125 1.1328125 7.1640625 C1.0238268 4.56763848 0.76461243 2.46375117 0 0 Z " fill="#C86E57" transform="translate(166,156)"/>
<path d="M0 0 C1.32 0.33 2.64 0.66 4 1 C4 1.66 4 2.32 4 3 C4.66 3 5.32 3 6 3 C6 3.99 6 4.98 6 6 C6.66 6 7.32 6 8 6 C11 11.75 11 11.75 11 14 C10.34 14 9.68 14 9 14 C8.896875 13.360625 8.79375 12.72125 8.6875 12.0625 C8.460625 11.381875 8.23375 10.70125 8 10 C7.01 9.67 6.02 9.34 5 9 C5 8.34 5 7.68 5 7 C3.68 6.67 2.36 6.34 1 6 C0.67 4.02 0.34 2.04 0 0 Z " fill="#7F301F" transform="translate(224,120)"/>
<path d="M0 0 C0.33 0 0.66 0 1 0 C1.14285714 7.42857143 1.14285714 7.42857143 0 11 C-0.66 11 -1.32 11 -2 11 C-2.495 11.495 -2.99 11.99 -3.5 12.5 C-3.995 12.995 -4.49 13.49 -5 14 C-5.66 14 -6.32 14 -7 14 C-5.86922864 10.08579143 -4.91187063 7.79054268 -2 5 C-0.80972016 2.40084462 -0.80972016 2.40084462 0 0 Z " fill="#C34931" transform="translate(241,187)"/>
<path d="M0 0 C-2.24525946 1.17666004 -4.49544142 2.3414074 -6.75 3.5 C-7.70132813 4.00080078 -7.70132813 4.00080078 -8.671875 4.51171875 C-12.12010993 6.27175533 -14.04840069 7 -18 7 C-18.33 7.99 -18.66 8.98 -19 10 C-19 8.35 -19 6.7 -19 5 C-14.545 4.505 -14.545 4.505 -10 4 C-10 3.34 -10 2.68 -10 2 C-9.34 2 -8.68 2 -8 2 C-8 1.34 -8 0.68 -8 0 C-4.71303767 -0.79953138 -3.28976808 -1.09658936 0 0 Z " fill="#F9D7C5" transform="translate(191,194)"/>
<path d="M0 0 C0.66 0 1.32 0 2 0 C1.45820789 4.55105375 0.37999159 8.06386006 -2 12 C-2.99 12.33 -3.98 12.66 -5 13 C-5 13.99 -5 14.98 -5 16 C-5.66 16 -6.32 16 -7 16 C-6.01 12.7 -5.02 9.4 -4 6 C-3.34 6 -2.68 6 -2 6 C-2 5.01 -2 4.02 -2 3 C-1.34 3 -0.68 3 0 3 C0 2.01 0 1.02 0 0 Z " fill="#7E311B" transform="translate(17,131)"/>
<path d="M0 0 C1.32 0.66 2.64 1.32 4 2 C3.67 2.66 3.34 3.32 3 4 C2.01 3.34 1.02 2.68 0 2 C0.04125 2.928125 0.0825 3.85625 0.125 4.8125 C0 8 0 8 -2 11 C-2.99 11 -3.98 11 -5 11 C-5 12.32 -5 13.64 -5 15 C-7 16.75 -7 16.75 -9 18 C-8.45276317 14.62537285 -7.9451 12.91765 -6 10 C-5.34 10 -4.68 10 -4 10 C-4 8.68 -4 7.36 -4 6 C-3.34 6 -2.68 6 -2 6 C-1.34 4.02 -0.68 2.04 0 0 Z " fill="#DB5334" transform="translate(155,97)"/>
<path d="M0 0 C0 3.3 0 6.6 0 10 C-0.66 10 -1.32 10 -2 10 C-2.33 13.3 -2.66 16.6 -3 20 C-3.66 20 -4.32 20 -5 20 C-4.34 14.06 -3.68 8.12 -3 2 C-4.32 2.33 -5.64 2.66 -7 3 C-6.67 2.34 -6.34 1.68 -6 1 C-3.911361 0.32624548 -2.19636905 0 0 0 Z " fill="#C3492B" transform="translate(138,4)"/>
<path d="M0 0 C0.33 0 0.66 0 1 0 C2.08446979 7.99138419 3.15566865 15.97885214 4 24 C2.015625 22.640625 2.015625 22.640625 0 20 C-0.51270905 16.57486085 -0.37576221 13.20362379 -0.25 9.75 C-0.23195312 8.81414062 -0.21390625 7.87828125 -0.1953125 6.9140625 C-0.14825673 4.60832985 -0.08253713 2.30469055 0 0 Z " fill="#D16951" transform="translate(57,180)"/>
<path d="M0 0 C0.33 0 0.66 0 1 0 C1 2.97 1 5.94 1 9 C1.99 9 2.98 9 4 9 C4 9.66 4 10.32 4 11 C7.69541586 11.95024979 10.30458414 11.95024979 14 11 C13.67 11.99 13.34 12.98 13 14 C11.56260487 14.02712066 10.12506137 14.04645067 8.6875 14.0625 C7.48673828 14.07990234 7.48673828 14.07990234 6.26171875 14.09765625 C4 14 4 14 1 13 C-0.00496852 9.98509443 -0.10335303 7.95818308 -0.0625 4.8125 C-0.05347656 3.91144531 -0.04445313 3.01039062 -0.03515625 2.08203125 C-0.02355469 1.39496094 -0.01195313 0.70789063 0 0 Z " fill="#BF4B2C" transform="translate(82,88)"/>
<path d="M0 0 C2.64 0.33 5.28 0.66 8 1 C8 2.32 8 3.64 8 5 C8.95712891 5.16435547 8.95712891 5.16435547 9.93359375 5.33203125 C10.75988281 5.49058594 11.58617187 5.64914063 12.4375 5.8125 C13.26121094 5.96332031 14.08492187 6.11414063 14.93359375 6.26953125 C15.95646484 6.63111328 15.95646484 6.63111328 17 7 C17.33 7.99 17.66 8.98 18 10 C11.18755248 8.16402123 5.55662233 5.38749848 0 1 C0 0.67 0 0.34 0 0 Z " fill="#6F2D1C" transform="translate(39,223)"/>
<path d="M0 0 C4.52967305 2.20362473 6.13871509 4.34678771 8 9 C9.36217768 13.58187036 9.0928811 18.26306383 9 23 C8.67 23 8.34 23 8 23 C7.89042969 22.35933594 7.78085938 21.71867187 7.66796875 21.05859375 C6.32854173 13.75163821 4.62521274 7.94670209 0 2 C0 1.34 0 0.68 0 0 Z " fill="#C84C2F" transform="translate(73,73)"/>
<path d="M0 0 C3.00351838 1.45021139 5.86067401 3.04164537 8.6875 4.8125 C9.47511719 5.29332031 10.26273438 5.77414063 11.07421875 6.26953125 C13.45538388 8.4091989 13.68669843 9.8722945 14 13 C14.66 13 15.32 13 16 13 C15.67 13.66 15.34 14.32 15 15 C10.30456853 10.43147208 10.30456853 10.43147208 8.5 7.875 C6.64762191 5.55952739 4.53823208 4.4969061 2 3 C1.34 2.01 0.68 1.02 0 0 Z " fill="#D4735E" transform="translate(181,140)"/>
<path d="M0 0 C0.66 0 1.32 0 2 0 C4.60625189 3.73940489 6.42308623 7.74233281 8 12 C7.67 12.99 7.34 13.98 7 15 C6.34 14.34 5.68 13.68 5 13 C5 12.01 5 11.02 5 10 C4.01 10 3.02 10 2 10 C1.34 6.7 0.68 3.4 0 0 Z " fill="#BF4A2E" transform="translate(94,68)"/>
<path d="M0 0 C3.491933 0.64665426 6.15389899 1.86542424 9 4 C9 5.32 9 6.64 9 8 C11.475 8.99 11.475 8.99 14 10 C13.67 10.66 13.34 11.32 13 12 C7.6701489 9.33507445 5.08790474 7.26087474 2 2 C1.34 1.34 0.68 0.68 0 0 Z " fill="#C84C33" transform="translate(171,68)"/>
<path d="M0 0 C1.32 0.33 2.64 0.66 4 1 C0.67193946 3.00888966 -2.66190337 5.0078317 -6 7 C-6.71027344 7.42539063 -7.42054688 7.85078125 -8.15234375 8.2890625 C-12.76483813 11 -12.76483813 11 -15 11 C-15 10.34 -15 9.68 -15 9 C-13.5459375 8.319375 -13.5459375 8.319375 -12.0625 7.625 C-8.92920418 6.34213779 -8.92920418 6.34213779 -8 4 C-6.68 4 -5.36 4 -4 4 C-4 3.34 -4 2.68 -4 2 C-2.68 2 -1.36 2 0 2 C0 1.34 0 0.68 0 0 Z " fill="#632519" transform="translate(217,220)"/>
<path d="M0 0 C3.09361183 1.75583374 5.50018479 3.50018479 8 6 C8.680625 6.309375 9.36125 6.61875 10.0625 6.9375 C12.45578707 8.24994775 13.00405747 9.51014367 14 12 C13.01 11.67 12.02 11.34 11 11 C11 10.34 11 9.68 11 9 C9.741875 8.7525 8.48375 8.505 7.1875 8.25 C4.30622016 7.53095494 3.17918376 7.17358427 1 5.0625 C0 3 0 3 0 0 Z " fill="#F9DACD" transform="translate(177,138)"/>
<path d="M0 0 C1.46484375 1.26953125 2.9296875 2.5390625 4.39453125 3.80859375 C6.10712971 5.20871231 6.10712971 5.20871231 9 6 C10.6875 8.5625 10.6875 8.5625 12 11 C8.67280518 10.44546753 5.78577578 9.95004305 3 8 C0 2.85714286 0 2.85714286 0 0 Z " fill="#CF5F43" transform="translate(74,226)"/>
<path d="M0 0 C5.66153846 1.47692308 5.66153846 1.47692308 7.375 4.125 C7.684375 5.053125 7.684375 5.053125 8 6 C8.66 6 9.32 6 10 6 C10.33 7.65 10.66 9.3 11 11 C11.66 11 12.32 11 13 11 C12.67 11.66 12.34 12.32 12 13 C10.68113228 11.90344712 9.37009943 10.79746577 8.0625 9.6875 C7.33160156 9.07261719 6.60070312 8.45773438 5.84765625 7.82421875 C4 6 4 6 3 3 C2.34 3 1.68 3 1 3 C0.67 2.01 0.34 1.02 0 0 Z " fill="#F8DCCD" transform="translate(80,229)"/>
<path d="M0 0 C-12.84466019 6 -12.84466019 6 -20 6 C-20 5.34 -20 4.68 -20 4 C-19.443125 3.89042969 -18.88625 3.78085938 -18.3125 3.66796875 C-14.26196952 2.82638894 -10.46464547 1.86834147 -6.625 0.3125 C-3 -1 -3 -1 0 0 Z " fill="#662617" transform="translate(197,234)"/>
<path d="M0 0 C-0.6875 2.4375 -0.6875 2.4375 -2 5 C-5.80939588 6.48143173 -9.07196405 5.82214706 -13 5 C-12.67 4.34 -12.34 3.68 -12 3 C-9.68529088 2.27129528 -7.3494053 1.60760482 -5 1 C-2 0 -2 0 0 0 Z " fill="#E34A22" transform="translate(154,194)"/>
<path d="M0 0 C0.66 0.33 1.32 0.66 2 1 C1.38125 1.0825 0.7625 1.165 0.125 1.25 C-0.57625 1.4975 -1.2775 1.745 -2 2 C-2.433125 2.928125 -2.433125 2.928125 -2.875 3.875 C-4.55160296 7.04191671 -6.72324196 7.75483194 -10 9 C-12.1953125 8.57421875 -12.1953125 8.57421875 -14 8 C-12.23174858 6.85018626 -10.46030479 5.70528078 -8.6875 4.5625 C-7.70136719 3.92441406 -6.71523437 3.28632813 -5.69921875 2.62890625 C-3 1 -3 1 0 0 Z " fill="#F4CCBE" transform="translate(92,144)"/>
<path d="M0 0 C2 1 2 1 3.1875 3.5 C4.21126193 7.91005138 3.72732066 11.57710406 3 16 C2.67 16 2.34 16 2 16 C1.67 14.02 1.34 12.04 1 10 C0.67 10 0.34 10 0 10 C0 6.7 0 3.4 0 0 Z " fill="#CD5534" transform="translate(170,162)"/>
<path d="M0 0 C0.66 0 1.32 0 2 0 C2 0.66 2 1.32 2 2 C2.66 2 3.32 2 4 2 C4.33 3.32 4.66 4.64 5 6 C5.66 6 6.32 6 7 6 C7 6.66 7 7.32 7 8 C7.66 8 8.32 8 9 8 C9 8.66 9 9.32 9 10 C9.66 10 10.32 10 11 10 C11 10.66 11 11.32 11 12 C8 12 8 12 5.9375 10.0625 C5.298125 9.381875 4.65875 8.70125 4 8 C3.34 7.67 2.68 7.34 2 7 C1.26924352 4.6859378 0.59861742 2.35171131 0 0 Z " fill="#752A1D" transform="translate(203,93)"/>
<path d="M0 0 C0.66 0.33 1.32 0.66 2 1 C0.64531705 5.87685861 -1.71675909 7.48592381 -6 10 C-6.66 9.67 -7.32 9.34 -8 9 C-7.67 8.01 -7.34 7.02 -7 6 C-6.34 6 -5.68 6 -5 6 C-5 5.34 -5 4.68 -5 4 C-4.01 4 -3.02 4 -2 4 C-2 3.34 -2 2.68 -2 2 C-1.34 2 -0.68 2 0 2 C0 1.34 0 0.68 0 0 Z " fill="#8D3124" transform="translate(227,210)"/>
<path d="M0 0 C0.33 0.99 0.66 1.98 1 3 C0.67 3.66 0.34 4.32 0 5 C-1.32 5 -2.64 5 -4 5 C-4 5.66 -4 6.32 -4 7 C-3.34 7.33 -2.68 7.66 -2 8 C-5.22791555 10.1519437 -6.28400809 10.20086443 -10 10 C-9.67 9.34 -9.34 8.68 -9 8 C-8.34 8 -7.68 8 -7 8 C-7 7.34 -7 6.68 -7 6 C-6.34 6 -5.68 6 -5 6 C-5 5.34 -5 4.68 -5 4 C-3.37373596 2.61767557 -1.7074998 1.28062485 0 0 Z " fill="#8C3722" transform="translate(47,100)"/>
<path d="M0 0 C0.99 0.495 0.99 0.495 2 1 C2.33 1.99 2.66 2.98 3 4 C3.66 4.33 4.32 4.66 5 5 C5.6328125 7.06640625 5.6328125 7.06640625 6.125 9.5625 C6.29257813 10.38878906 6.46015625 11.21507812 6.6328125 12.06640625 C6.75398437 12.70449219 6.87515625 13.34257813 7 14 C6.34 13.67 5.68 13.34 5 13 C5 12.34 5 11.68 5 11 C4.34 11 3.68 11 3 11 C3 10.01 3 9.02 3 8 C2.34 8 1.68 8 1 8 C0.67 5.36 0.34 2.72 0 0 Z " fill="#C74E2D" transform="translate(135,29)"/>
<path d="M0 0 C2.0625 0.4375 2.0625 0.4375 4 1 C3.67 1.33 3.34 1.66 3 2 C4.65 2.33 6.3 2.66 8 3 C8 3.33 8 3.66 8 4 C2.72 4 -2.56 4 -8 4 C-8 3.34 -8 2.68 -8 2 C-6.865625 1.855625 -5.73125 1.71125 -4.5625 1.5625 C-1.19222799 1.38828522 -1.19222799 1.38828522 0 0 Z " fill="#D15238" transform="translate(138,197)"/>
<path d="M0 0 C0.66 0 1.32 0 2 0 C2.39253254 4.44870215 1.15305957 7.14243493 -1 11 C-1.66 11 -2.32 11 -3 11 C-2.67 8.03 -2.34 5.06 -2 2 C-1.34 2 -0.68 2 0 2 C0 1.34 0 0.68 0 0 Z " fill="#C14B2F" transform="translate(21,128)"/>
<path d="M0 0 C3.96 1.98 3.96 1.98 8 4 C8 4.66 8 5.32 8 6 C8.99 5.67 9.98 5.34 11 5 C11.33 6.32 11.66 7.64 12 9 C6.81298543 8.68563548 3.4052641 5.69966733 0 2 C0 1.34 0 0.68 0 0 Z " fill="#C74F2E" transform="translate(145,47)"/>
<path d="M0 0 C2.76455889 0.64939303 5.4010339 1.44778332 8.0625 2.4375 C8.73410156 2.68371094 9.40570313 2.92992187 10.09765625 3.18359375 C12 4 12 4 15 6 C15 6.66 15 7.32 15 8 C13.35 7.67 11.7 7.34 10 7 C10 6.01 10 5.02 10 4 C8.72125 3.855625 7.4425 3.71125 6.125 3.5625 C3.74307106 3.29357254 2.15547309 3.07773654 0 2 C0 1.34 0 0.68 0 0 Z " fill="#F5CEBA" transform="translate(160,130)"/>
<path d="M0 0 C0.66 0 1.32 0 2 0 C2 0.66 2 1.32 2 2 C2.515625 2.226875 3.03125 2.45375 3.5625 2.6875 C6.92403127 4.4975553 9.92911144 6.73996404 13 9 C12.67 9.66 12.34 10.32 12 11 C10.88625 10.2884375 10.88625 10.2884375 9.75 9.5625 C7.38949985 8.22130673 5.63351523 7.487688 3 7 C3 5.68 3 4.36 3 3 C2.01 2.67 1.02 2.34 0 2 C0 1.34 0 0.68 0 0 Z " fill="#742B1C" transform="translate(167,61)"/>
<path d="M0 0 C6.47556391 0.61090226 6.47556391 0.61090226 8.9375 2.4375 C10 4 10 4 10 6 C7.36 5.34 4.72 4.68 2 4 C2 3.34 2 2.68 2 2 C1.34 2 0.68 2 0 2 C0 1.34 0 0.68 0 0 Z " fill="#973C2E" transform="translate(33,218)"/>
<path d="M0 0 C0.66 0 1.32 0 2 0 C1.5547115 5.27315333 0.91626837 10.01770224 -1 15 C-1.66 15 -2.32 15 -3 15 C-2.67 12.03 -2.34 9.06 -2 6 C-1.34 6 -0.68 6 0 6 C0 4.02 0 2.04 0 0 Z " fill="#7F2E1F" transform="translate(244,181)"/>
<path d="M0 0 C0.99 0.33 1.98 0.66 3 1 C3 2.32 3 3.64 3 5 C3.66 5 4.32 5 5 5 C5.33 6.98 5.66 8.96 6 11 C5.34 11 4.68 11 4 11 C0 4.5 0 4.5 0 0 Z " fill="#BA4A2E" transform="translate(230,129)"/>
<path d="M0 0 C0.66 0 1.32 0 2 0 C2.02705729 1.77074917 2.04642195 3.54161711 2.0625 5.3125 C2.07410156 6.29863281 2.08570312 7.28476563 2.09765625 8.30078125 C2 11 2 11 1 14 C0.01 14 -0.98 14 -2 14 C-2 13.01 -2 12.02 -2 11 C-1.34 11 -0.68 11 0 11 C0 7.37 0 3.74 0 0 Z " fill="#6E2B1D" transform="translate(62,72)"/>
<path d="M0 0 C0.66 0 1.32 0 2 0 C2.08687496 3.12482562 2.14034568 6.24934246 2.1875 9.375 C2.21263672 10.26445312 2.23777344 11.15390625 2.26367188 12.0703125 C2.27333984 12.92109375 2.28300781 13.771875 2.29296875 14.6484375 C2.3086792 15.43395996 2.32438965 16.21948242 2.34057617 17.02880859 C2.22818604 17.67930176 2.1157959 18.32979492 2 19 C1.01 19.66 0.02 20.32 -1 21 C-0.83628906 20.34644531 -0.67257813 19.69289062 -0.50390625 19.01953125 C0.12848563 15.23008226 0.10696709 11.51509049 0.0625 7.6875 C0.05798828 6.94693359 0.05347656 6.20636719 0.04882812 5.44335938 C0.03712175 3.62887101 0.01918898 1.81442466 0 0 Z " fill="#D98068" transform="translate(201,163)"/>
<path d="M0 0 C0.99 0.33 1.98 0.66 3 1 C2.34 2.32 1.68 3.64 1 5 C0.01 5 -0.98 5 -2 5 C-2 5.66 -2 6.32 -2 7 C-3.98 7.66 -5.96 8.32 -8 9 C-6.625 7 -6.625 7 -5 5 C-4.34 5 -3.68 5 -3 5 C-3 4.34 -3 3.68 -3 3 C-2.34 3 -1.68 3 -1 3 C-0.67 2.01 -0.34 1.02 0 0 Z " fill="#8B3523" transform="translate(56,91)"/>
<path d="M0 0 C2.4375 0.8125 2.4375 0.8125 5 2 C5.33 2.99 5.66 3.98 6 5 C6.99 5.33 7.98 5.66 9 6 C8.67 7.32 8.34 8.64 8 10 C6.29115995 8.37660195 4.62553283 6.70680947 3 5 C3 4.34 3 3.68 3 3 C2.34 3 1.68 3 1 3 C0.67 2.01 0.34 1.02 0 0 Z " fill="#FBE2D2" transform="translate(71,219)"/>
<path d="M0 0 C0.66 0 1.32 0 2 0 C1.67 1.65 1.34 3.3 1 5 C0.34 5 -0.32 5 -1 5 C-1 5.66 -1 6.32 -1 7 C-1.639375 7.12375 -2.27875 7.2475 -2.9375 7.375 C-3.9584375 7.684375 -3.9584375 7.684375 -5 8 C-5.33 8.66 -5.66 9.32 -6 10 C-5.67 8.35 -5.34 6.7 -5 5 C-4.34 5 -3.68 5 -3 5 C-2.67 4.01 -2.34 3.02 -2 2 C-1.34 2 -0.68 2 0 2 C0 1.34 0 0.68 0 0 Z " fill="#CE4D32" transform="translate(232,202)"/>
<path d="M0 0 C0.33 0 0.66 0 1 0 C0.87952582 5.02705917 0.75412763 8.09872551 -2.5625 12.0625 C-3.366875 12.701875 -4.17125 13.34125 -5 14 C-5 12.68 -5 11.36 -5 10 C-4.34 10 -3.68 10 -3 10 C-3 8.35 -3 6.7 -3 5 C-2.34 5 -1.68 5 -1 5 C-0.67 3.35 -0.34 1.7 0 0 Z " fill="#FAE4D4" transform="translate(200,175)"/>
<path d="M0 0 C0 0.66 0 1.32 0 2 C-0.99 2 -1.98 2 -3 2 C-3.04125 2.763125 -3.0825 3.52625 -3.125 4.3125 C-4 7 -4 7 -7 8.6875 C-7.99 9.120625 -8.98 9.55375 -10 10 C-10.33 10.66 -10.66 11.32 -11 12 C-11.66 11.67 -12.32 11.34 -13 11 C-12.2575 10.278125 -11.515 9.55625 -10.75 8.8125 C-7.99867822 6.09431767 -7.99867822 6.09431767 -5.8125 3.25 C-3.86054227 0.82688005 -3.10885956 0 0 0 Z " fill="#F0BBAB" transform="translate(78,153)"/>
<path d="M0 0 C0.33 0 0.66 0 1 0 C1 3.96 1 7.92 1 12 C0.67 12 0.34 12 0 12 C-0.33 10.02 -0.66 8.04 -1 6 C-1.33 6.99 -1.66 7.98 -2 9 C-2.66 9 -3.32 9 -4 9 C-2.25 2.25 -2.25 2.25 0 0 Z " fill="#F2BEAA" transform="translate(156,103)"/>
<path d="M0 0 C4.2742558 1.5830577 6.26531794 4.50568404 9 8 C6.31325398 7.63692621 4.44127696 7.33095772 2.25 5.6875 C0.85255754 3.80095268 0.3962081 2.29800696 0 0 Z " fill="#84321F" transform="translate(194,85)"/>
<path d="M0 0 C0.66 0 1.32 0 2 0 C3.28571429 8.42857143 3.28571429 8.42857143 2 13 C1.34 13 0.68 13 0 13 C0 13.66 0 14.32 0 15 C-1.65 15.33 -3.3 15.66 -5 16 C-5 15.34 -5 14.68 -5 14 C-3.02 13.34 -1.04 12.68 1 12 C0.67 8.04 0.34 4.08 0 0 Z " fill="#A83E20" transform="translate(101,83)"/>
<path d="M0 0 C1.29608947 0.93137592 2.58671632 1.8703566 3.875 2.8125 C4.59429687 3.33457031 5.31359375 3.85664063 6.0546875 4.39453125 C8 6 8 6 10 9 C9.46375 8.690625 8.9275 8.38125 8.375 8.0625 C5.6015043 6.82172561 2.99957163 6.4090325 0 6 C0 4.02 0 2.04 0 0 Z " fill="#C36E5E" transform="translate(86,237)"/>
<path d="M0 0 C1.98 0 3.96 0 6 0 C5.67 1.32 5.34 2.64 5 4 C3.35 4.33 1.7 4.66 0 5 C0 3.35 0 1.7 0 0 Z " fill="#97412D" transform="translate(0,218)"/>
<path d="M0 0 C2.64751415 2.64751415 2.71520084 4.29761096 3 8 C2.0625 11.375 2.0625 11.375 1 14 C0.67 14 0.34 14 0 14 C0 9.38 0 4.76 0 0 Z " fill="#D6593A" transform="translate(203,167)"/>
<path d="M0 0 C7.81308411 5.14953271 7.81308411 5.14953271 10 7 C10 7.66 10 8.32 10 9 C5.61633881 7.80445604 2.84621677 6.6125059 0 3 C0 2.01 0 1.02 0 0 Z " fill="#792F20" transform="translate(156,52)"/>
<path d="M0 0 C0.33 0.66 0.66 1.32 1 2 C0.01 3.485 0.01 3.485 -1 5 C-1.66 5 -2.32 5 -3 5 C-3.66 8.3 -4.32 11.6 -5 15 C-5.33 15 -5.66 15 -6 15 C-6.25 7.375 -6.25 7.375 -4 4 C-3.34 4 -2.68 4 -2 4 C-2 3.01 -2 2.02 -2 1 C-1.34 0.67 -0.68 0.34 0 0 Z " fill="#CF6C57" transform="translate(64,165)"/>
<path d="M0 0 C0.33 0.66 0.66 1.32 1 2 C0.67 2.99 0.34 3.98 0 5 C-2.0625 5.6875 -2.0625 5.6875 -4 6 C-4 6.66 -4 7.32 -4 8 C-4.66 8 -5.32 8 -6 8 C-6 8.99 -6 9.98 -6 11 C-6.66 11 -7.32 11 -8 11 C-8 11.66 -8 12.32 -8 13 C-8.66 12.67 -9.32 12.34 -10 12 C-9.67 11.34 -9.34 10.68 -9 10 C-8.34 10 -7.68 10 -7 10 C-7 9.01 -7 8.02 -7 7 C-6.34 7 -5.68 7 -5 7 C-5 6.34 -5 5.68 -5 5 C-4.34 5 -3.68 5 -3 5 C-2.690625 4.360625 -2.38125 3.72125 -2.0625 3.0625 C-1 1 -1 1 0 0 Z " fill="#752B1F" transform="translate(29,117)"/>
<path d="M0 0 C0.33 0 0.66 0 1 0 C1 3.3 1 6.6 1 10 C1.66 10 2.32 10 3 10 C3 10.66 3 11.32 3 12 C3.66 12 4.32 12 5 12 C5 13.32 5 14.64 5 16 C2 15 2 15 0.8203125 13.296875 C-0.1819244 10.49061169 -0.19578721 8.22306264 -0.125 5.25 C-0.09792969 3.77273437 -0.09792969 3.77273437 -0.0703125 2.265625 C-0.04710937 1.51796875 -0.02390625 0.7703125 0 0 Z " fill="#95391F" transform="translate(135,18)"/>
<path d="M0 0 C-1.485 1.98 -1.485 1.98 -3 4 C-3 3.34 -3 2.68 -3 2 C-4.04800781 2.45052734 -4.04800781 2.45052734 -5.1171875 2.91015625 C-6.02726563 3.29042969 -6.93734375 3.67070313 -7.875 4.0625 C-8.77992188 4.44535156 -9.68484375 4.82820312 -10.6171875 5.22265625 C-13 6 -13 6 -15 5 C-13.68 4.67 -12.36 4.34 -11 4 C-11 3.34 -11 2.68 -11 2 C-7.17679443 0.57741188 -4.08718695 -0.24042276 0 0 Z " fill="#A74932" transform="translate(141,2)"/>
<path d="M0 0 C0.66 0 1.32 0 2 0 C2.368 5.52 2.368 5.52 0.5625 7.875 C-1 9 -1 9 -2 9 C-2 7.02 -2 5.04 -2 3 C-1.34 3 -0.68 3 0 3 C0 2.01 0 1.02 0 0 Z " fill="#B44C31" transform="translate(95,34)"/>
<path d="M0 0 C0.66 0.33 1.32 0.66 2 1 C1.67 1.99 1.34 2.98 1 4 C-0.65 4.33 -2.3 4.66 -4 5 C-4 5.66 -4 6.32 -4 7 C-4.66 7 -5.32 7 -6 7 C-6 7.99 -6 8.98 -6 10 C-6.66 10 -7.32 10 -8 10 C-6.5682479 4.98886765 -4.01554307 3.05530451 0 0 Z " fill="#933B27" transform="translate(101,27)"/>
<path d="M0 0 C0.33 0 0.66 0 1 0 C1.36923077 5.53846154 1.36923077 5.53846154 -0.5 7.875 C-1.2425 8.431875 -1.2425 8.431875 -2 9 C-2.66 8.67 -3.32 8.34 -4 8 C-1.125 1.125 -1.125 1.125 0 0 Z " fill="#D5765C" transform="translate(165,219)"/>
<path d="M0 0 C0.33 1.32 0.66 2.64 1 4 C-1.25 6.0625 -1.25 6.0625 -4 8 C-6.3125 7.75 -6.3125 7.75 -8 7 C-3.25 3 -3.25 3 -1 3 C-0.67 2.01 -0.34 1.02 0 0 Z " fill="#F5CBBE" transform="translate(169,186)"/>
<path d="M0 0 C2.9375 1.125 2.9375 1.125 6 3 C6.875 6.1875 6.875 6.1875 7 9 C6.34 9 5.68 9 5 9 C5 8.01 5 7.02 5 6 C4.01 5.67 3.02 5.34 2 5 C0.8125 2.4375 0.8125 2.4375 0 0 Z " fill="#CA4C32" transform="translate(218,115)"/>
<path d="M0 0 C1 2 1 2 0.875 3.9375 C-0.8097144 7.90861252 -5.3131656 9.16051333 -9 11 C-8.60167969 10.54109375 -8.20335937 10.0821875 -7.79296875 9.609375 C-5.08857938 6.47728415 -2.42008229 3.36122541 0 0 Z " fill="#F1BBAF" transform="translate(151,112)"/>
<path d="M0 0 C1.98 0 3.96 0 6 0 C6 0.99 6 1.98 6 3 C5.01 2.67 4.02 2.34 3 2 C3 2.99 3 3.98 3 5 C2.01 5.33 1.02 5.66 0 6 C0 4.02 0 2.04 0 0 Z " fill="#722E2E" transform="translate(60,65)"/>
<path d="M0 0 C0.66 0.33 1.32 0.66 2 1 C1.31267043 3.74931827 0.64439778 5.53418821 -1.69140625 7.22265625 C-3.43116325 8.20324656 -5.2137611 9.10688055 -7 10 C-7 9.34 -7 8.68 -7 8 C-6.34 8 -5.68 8 -5 8 C-5 7.34 -5 6.68 -5 6 C-4.34 6 -3.68 6 -3 6 C-3 5.01 -3 4.02 -3 3 C-1.5 1.3125 -1.5 1.3125 0 0 Z " fill="#6C2514" transform="translate(103,21)"/>
<path d="M0 0 C2.31 0 4.62 0 7 0 C6.67 0.66 6.34 1.32 6 2 C5.34 2 4.68 2 4 2 C4 2.66 4 3.32 4 4 C2.35 4 0.7 4 -1 4 C-0.67 2.68 -0.34 1.36 0 0 Z " fill="#BC4D37" transform="translate(150,242)"/>
<path d="M0 0 C0.99 0 1.98 0 3 0 C3.33 3.3 3.66 6.6 4 10 C3.34 9.67 2.68 9.34 2 9 C2 7.35 2 5.7 2 4 C1.34 4 0.68 4 0 4 C0 2.68 0 1.36 0 0 Z " fill="#5F2415" transform="translate(6,177)"/>
<path d="M0 0 C0.33 0.66 0.66 1.32 1 2 C-1.3125 4.5 -1.3125 4.5 -4 7 C-4.99 7 -5.98 7 -7 7 C-7 6.34 -7 5.68 -7 5 C-6.34 5 -5.68 5 -5 5 C-5 4.34 -5 3.68 -5 3 C-2.5 1.375 -2.5 1.375 0 0 Z " fill="#C94D31" transform="translate(30,120)"/>
<path d="M0 0 C5.62134251 1.46643718 5.62134251 1.46643718 7.375 3.9375 C8 6 8 6 8 9 C7.34 9 6.68 9 6 9 C6 8.01 6 7.02 6 6 C5.34 6 4.68 6 4 6 C1.875 4.125 1.875 4.125 0 2 C0 1.34 0 0.68 0 0 Z " fill="#C2492F" transform="translate(197,91)"/>
<path d="M0 0 C6.875 3.625 6.875 3.625 8 7 C2.25 5.125 2.25 5.125 0 4 C0 2.68 0 1.36 0 0 Z " fill="#7F2E20" transform="translate(180,72)"/>
<path d="M0 0 C0.66 0.33 1.32 0.66 2 1 C1.2575 1.5775 0.515 2.155 -0.25 2.75 C-2.66087643 4.72253526 -4.84042701 6.76044282 -7 9 C-7.66 8.67 -8.32 8.34 -9 8 C-8.67 7.34 -8.34 6.68 -8 6 C-7.34 6 -6.68 6 -6 6 C-6 5.34 -6 4.68 -6 4 C-4.03852126 2.61061923 -2.03833424 1.2739589 0 0 Z " fill="#C74D31" transform="translate(112,17)"/>
<path d="M0 0 C0.66 0.33 1.32 0.66 2 1 C-1.96 4.465 -1.96 4.465 -6 8 C-6.66 7.67 -7.32 7.34 -8 7 C-7.67 6.01 -7.34 5.02 -7 4 C-5.68 4 -4.36 4 -3 4 C-3 3.01 -3 2.02 -3 1 C-2.01 0.67 -1.02 0.34 0 0 Z " fill="#F6D0BF" transform="translate(160,183)"/>
<path d="M0 0 C0.66 0 1.32 0 2 0 C2 0.66 2 1.32 2 2 C2.66 2 3.32 2 4 2 C6.125 8.5 6.125 8.5 5 13 C3.35 8.71 1.7 4.42 0 0 Z " fill="#D98B7A" transform="translate(168,156)"/>
<path d="M0 0 C1.32 0.33 2.64 0.66 4 1 C2.625 3 2.625 3 1 5 C0.34 5 -0.32 5 -1 5 C-1 5.99 -1 6.98 -1 8 C-1.66 8 -2.32 8 -3 8 C-2.37240135 5.07120629 -1.41377341 2.63904371 0 0 Z " fill="#D45436" transform="translate(63,161)"/>
<path d="M0 0 C-1.32 0.33 -2.64 0.66 -4 1 C-4 1.66 -4 2.32 -4 3 C-6.97 3.66 -9.94 4.32 -13 5 C-12.67 4.34 -12.34 3.68 -12 3 C-10.68 3 -9.36 3 -8 3 C-8 2.34 -8 1.68 -8 1 C-2.25 -1.125 -2.25 -1.125 0 0 Z " fill="#F2BDAD" transform="translate(108,139)"/>
<path d="M0 0 C0.66 0 1.32 0 2 0 C2 0.66 2 1.32 2 2 C3.32 2 4.64 2 6 2 C6 2.66 6 3.32 6 4 C6.66 4 7.32 4 8 4 C8.33 4.99 8.66 5.98 9 7 C7.68 7 6.36 7 5 7 C5 6.01 5 5.02 5 4 C4.360625 3.896875 3.72125 3.79375 3.0625 3.6875 C2.381875 3.460625 1.70125 3.23375 1 3 C0.67 2.01 0.34 1.02 0 0 Z " fill="#BA4A32" transform="translate(27,211)"/>
<path d="M0 0 C4.23830976 2.82553984 3.97715348 5.12180888 5 10 C4.01 9.34 3.02 8.68 2 8 C2 7.34 2 6.68 2 6 C1.34 6 0.68 6 0 6 C0 4.02 0 2.04 0 0 Z " fill="#F0C3B4" transform="translate(66,209)"/>
<path d="M0 0 C0.99 0 1.98 0 3 0 C1.68775452 3.93673644 0.08089673 6.22719294 -3 9 C-2.67 7.35 -2.34 5.7 -2 4 C-1.34 4 -0.68 4 0 4 C0 2.68 0 1.36 0 0 Z " fill="#D16551" transform="translate(150,108)"/>
<path d="M0 0 C0.99 0.33 1.98 0.66 3 1 C1.25 3 1.25 3 -1 5 C-2.32 5 -3.64 5 -5 5 C-5.33 5.66 -5.66 6.32 -6 7 C-6 6.01 -6 5.02 -6 4 C-4.02 3.34 -2.04 2.68 0 2 C0 1.34 0 0.68 0 0 Z " fill="#C34835" transform="translate(54,96)"/>
<path d="M0 0 C0 0.66 0 1.32 0 2 C-2.31 2.33 -4.62 2.66 -7 3 C-7.33 3.99 -7.66 4.98 -8 6 C-8 4.35 -8 2.7 -8 1 C-5.07175348 0.02391783 -3.04386724 -0.08226668 0 0 Z " fill="#FADFD1" transform="translate(180,198)"/>
<path d="M0 0 C1.39195915 4.17587745 -0.17676781 6.13474776 -2 10 C-2.66 9.67 -3.32 9.34 -4 9 C-3.71848913 7.68528432 -3.42446661 6.37324233 -3.125 5.0625 C-2.96257812 4.33160156 -2.80015625 3.60070312 -2.6328125 2.84765625 C-2 1 -2 1 0 0 Z " fill="#D94E2D" transform="translate(242,182)"/>
<path d="M0 0 C0.66 0.33 1.32 0.66 2 1 C-0.06756277 3.7972908 -1.14440371 4.02692273 -4.6875 4.6875 C-5.780625 4.790625 -6.87375 4.89375 -8 5 C-6.35197949 1.70395897 -3.32254422 1.22409524 0 0 Z " fill="#F0B9A5" transform="translate(133,127)"/>
<path d="M0 0 C0.721875 0.185625 1.44375 0.37125 2.1875 0.5625 C5.12826973 1.01995307 7.14103058 0.73516357 10 0 C9.67 0.99 9.34 1.98 9 3 C6.03 3 3.06 3 0 3 C0 2.01 0 1.02 0 0 Z " fill="#933118" transform="translate(86,99)"/>
<path d="M0 0 C0 0.66 0 1.32 0 2 C-0.66 2 -1.32 2 -2 2 C-2.33 2.99 -2.66 3.98 -3 5 C-5.0625 5.6875 -5.0625 5.6875 -7 6 C-5.52522876 2.59668175 -4.14385429 0 0 0 Z " fill="#A13D29" transform="translate(204,227)"/>
<path d="M0 0 C0.33 0.66 0.66 1.32 1 2 C2.32 1.34 3.64 0.68 5 0 C4 2 3 4 2 6 C1.01 6 0.02 6 -1 6 C-0.67 4.02 -0.34 2.04 0 0 Z " fill="#F8C9BA" transform="translate(157,225)"/>
<path d="M0 0 C-0.33 0.99 -0.66 1.98 -1 3 C-1.66 3 -2.32 3 -3 3 C-3 3.66 -3 4.32 -3 5 C-4.32 4.67 -5.64 4.34 -7 4 C-3.375 0 -3.375 0 0 0 Z " fill="#BB4936" transform="translate(220,217)"/>
<path d="M0 0 C0.99 0.495 0.99 0.495 2 1 C2.59355614 3.64860427 2.74209269 6.29197322 3 9 C2.01 8.67 1.02 8.34 0 8 C0 5.36 0 2.72 0 0 Z " fill="#D6755A" transform="translate(63,206)"/>
<path d="M0 0 C1 2 1 2 0.875 4 C0 6 0 6 -2.5625 7.25 C-3.366875 7.4975 -4.17125 7.745 -5 8 C-3.8141763 4.62496331 -2.72426311 2.35277269 0 0 Z " fill="#D15631" transform="translate(161,188)"/>
<path d="M0 0 C0.66 0 1.32 0 2 0 C0.63016497 3.16115776 0.0109362 3.9927092 -3 6 C-3.99 6 -4.98 6 -6 6 C-5.67 5.01 -5.34 4.02 -5 3 C-3.35 2.67 -1.7 2.34 0 2 C0 1.34 0 0.68 0 0 Z " fill="#CB4F2E" transform="translate(101,96)"/>
<path d="M0 0 C-0.66 2.97 -1.32 5.94 -2 9 C-2.33 9 -2.66 9 -3 9 C-3 6.69 -3 4.38 -3 2 C-4.32 2.33 -5.64 2.66 -7 3 C-6.67 2.34 -6.34 1.68 -6 1 C-3.911361 0.32624548 -2.19636905 0 0 0 Z " fill="#CF4F30" transform="translate(138,4)"/>
<path d="M0 0 C2.64 0.33 5.28 0.66 8 1 C8 1.99 8 2.98 8 4 C4.31245243 3.50168276 2.39509338 2.89932357 0 0 Z " fill="#802C1E" transform="translate(39,223)"/>
<path d="M0 0 C1.65 0 3.3 0 5 0 C5 0.66 5 1.32 5 2 C0.545 3.485 0.545 3.485 -4 5 C-4 4.34 -4 3.68 -4 3 C-3.01 3 -2.02 3 -1 3 C-0.67 2.01 -0.34 1.02 0 0 Z " fill="#CF694F" transform="translate(95,140)"/>
<path d="M0 0 C0.33 0.66 0.66 1.32 1 2 C-0.65 3.98 -2.3 5.96 -4 8 C-4.33 7.01 -4.66 6.02 -5 5 C-3.35 3.35 -1.7 1.7 0 0 Z " fill="#D44D2C" transform="translate(63,87)"/>
<path d="M0 0 C0.99 0.33 1.98 0.66 3 1 C3 2.65 3 4.3 3 6 C2.01 6 1.02 6 0 6 C0 4.02 0 2.04 0 0 Z " fill="#732E20" transform="translate(137,6)"/>
<path d="M0 0 C0.66 0 1.32 0 2 0 C3.06775224 1.96466413 4.06553465 3.96855359 5 6 C4.67 6.66 4.34 7.32 4 8 C2 6.25 2 6.25 0 4 C0 2.68 0 1.36 0 0 Z " fill="#C04932" transform="translate(212,105)"/>
<path d="M0 0 C0.99 0 1.98 0 3 0 C3.66 2.64 4.32 5.28 5 8 C4.34 8 3.68 8 3 8 C0 2.25 0 2.25 0 0 Z " fill="#602315" transform="translate(91,68)"/>
<path d="M0 0 C2 1 2 1 2 1 Z " fill="#000000" transform="translate(101,20)"/>
<path d="" fill="#000000" transform="translate(0,0)"/>
<path d="" fill="#000000" transform="translate(0,0)"/>
<path d="" fill="#000000" transform="translate(0,0)"/>
<path d="" fill="#000000" transform="translate(0,0)"/>
</svg>
